<svg xmlns="http://www.w3.org/2000/svg" width="64" height="64" id="bulbasaur"><g transform="translate(-220.557 -745.382) scale(.67028)"><ellipse cx="374.516" cy="1197.793" fill="#e8edf1" rx="38.828" ry="9.277"></ellipse><path fill="#33552b" fill-rule="evenodd" stroke="#000" stroke-linecap="round" stroke-linejoin="round" d="M377.184 1127.008c.268.685.479 1.39.63 2.107a13.492 13.492 0 0 1-1.036 8.568c-1.275 2.676-3.44 4.961-6.133 6.475-2.948 1.656-6.252 2.3-9.295 3.112-3.031.808-5.984 1.875-7.943 3.848-1.288 1.298-2.13 2.998-2.35 4.75a8.024 8.024 0 0 0 1.106 5.12c.931 1.536 2.411 2.798 4.137 3.526 1.726.728 3.183 1.235 5.041.877.248.552.444 1.115 1.18 1.574-2.3.444-4.947.21-7.082-.691-2.135-.901-3.933-2.433-5.085-4.332a9.802 9.802 0 0 1-1.36-6.294c.274-2.169 1.296-4.234 2.89-5.84 2.402-2.42 5.754-3.557 8.898-4.395 3.134-.835 6.239-1.474 8.792-2.908 2.32-1.304 4.207-3.296 5.306-5.601a11.723 11.723 0 0 0 .896-7.413c-.521-2.47-1.886-4.796-3.837-6.538-1.952-1.742-4.507-2.915-7.183-3.297l.32-1.91c3.106.444 6.036 1.789 8.302 3.81a14.308 14.308 0 0 1 3.806 5.452z" color="#000" style="line-height:normal;text-indent:0;text-align:start;text-decoration-line:none;text-decoration-style:solid;text-decoration-color:#000;text-transform:none;block-progression:tb;white-space:normal;isolation:auto;mix-blend-mode:normal;solid-color:#000;solid-opacity:1" font-family="sans-serif" font-weight="400" overflow="visible"></path><path fill="#33552b" stroke="#000" stroke-linecap="round" stroke-linejoin="round" d="M357.375 1117.797c3.777.105 4.194 1.841 5.462 2.62 1.268.778 2.975.453 3.812-.725.837-1.179.488-2.765-.78-3.543s-6.425-1.921-8.494 1.648z"></path><g stroke-width="1.883"><path fill="#d7ede6" fill-rule="evenodd" stroke="#000" d="M421.212 953.352c-1.107-.599-2.812 4.687-2.812 4.687s5.198-1.443 4.812-2.562c-.307-.891-.986-1.577-2-2.125zm-27.51.512c-1.056-.51-2.684 3.985-2.684 3.985s4.962-1.227 4.593-2.179c-.293-.757-.94-1.34-1.909-1.806z" transform="matrix(.55093 0 0 .51205 137.074 705.546)"></path><path fill="#7fc8ad" fill-rule="evenodd" d="m347.523 1171.121 1.218-2.58.494-2.193.685-2.44 1.255-3.394.685-.955 3.386 1.167 3.044 1.733h2.7l5.44.106 3.082.495 1.19.395 2.703-1.188 2.366-.78.57-.23.932 2.015.495 1.556.989 2.652.418 3.076 2.892 1.414 3.268 1.76 4.09 3.601 3.82 5.2 1.99 4.501.403 2.475-.269 2.9-1.183 3.5-1.99 1.651-3.148.75-2.583-.55-1.829-1.275-1.184-1.825-.215-.55-1.56-.2-.079.168-1.74 1.941c-.607.679-.85 1.08-1.644 1.522-.67.373-1.272.884-2.01 1.12-.61.195-2.104.486-2.746.427-1.165-.106-2.375-.168-3.276-.863-.323-.249-.498-.649-.609-1.025-.22-.75-.137-2.492-.137-2.492l-.38.46a14.49 14.49 0 0 1-2.473-3.041l-.76-.602-1.485-.388s-.394 1.051-.646 1.555c-.544 1.086-.98 2.276-1.864 3.147a5.918 5.918 0 0 1-2.473 1.45 4.195 4.195 0 0 1-1.94.07 6.23 6.23 0 0 1-2.55-1.166c-.795-.612-1.378-1.452-1.864-2.298-.53-.925-1.103-2.97-1.103-2.97l-.532-3.218.076-2.758-2.665-1.99-2.475-2.326-2.017-2.075.053-.95.861-1.075.67-1.025.646-1.821z"></path><path fill="#d8ede6" fill-rule="evenodd" d="m351.613 1159.878-1.793 4.643-.614 1.66s-.001.764.332.988c.477.321 1.394.48 1.888.174.773-.479.462-1.528.293-2.28-.478-2.137-.08-3.51-.08-3.51l.21-1.536"></path><path fill="#fff" fill-rule="evenodd" d="m368.72 1172.962-1.068 1.152-1.102 2.112-1.17 2.848 1.445.448 1.963.224.999.032.034-.544-.654-1.28-.586-2.464.104-1.824z"></path><path fill="#be3e57" fill-rule="evenodd" d="m371.853 1170.625-1.688 1.024-1.17 1.057-.345 1.184-.034 2.144.344 1.536.758 1.664.275.512 2.79-.416 2.616-.48.379-.896-.344-1.856-.551-1.952-1.033-1.792-.93-.96z"></path><path fill="#c03d55" fill-rule="evenodd" d="m350.934 1177.617-.56-.227-.073-1.697.56-3.779.754-1.697.926-1.222.268-.543.706 1.29.438 1.244.316 2.829-.219 2.715-.706 1.471-1.996-.203z"></path><path fill="#d8ede6" fill-rule="evenodd" d="m376.306 1161.635-4.983 2.114-1.764.77s-.651.528-.65.887c0 .514.392 1.183.937 1.274.85.142 1.565-.773 2.109-1.396 1.543-1.77 2.94-2.475 2.94-2.475l1.428-.933"></path><path fill="#4cb08b" fill-rule="evenodd" d="m373.466 1198.979 9.8-13.437s-.046.114.152 1.248c.188 1.076-.062 2.19-.292 3.258a11.86 11.86 0 0 1-.974 2.807c-.387.774-.897 1.498-1.46 2.172a13.849 13.849 0 0 1-2.046 1.991c-.66.52-1.323 1.104-2.143 1.358-.678.21-3.037.603-3.037.603zm7.76-27.369 6.62 3.82 5.25 6.293 2.586 5.233-.152 5.233-1.293 4.173-2.359 1.626-3.348.283s-1.468-.307-2.005-.778c-.221-.193-.713-.525-.713-.525 12.238-4.306 3.221-20.618-4.586-25.358z"></path><path fill="#7aa659" fill-rule="evenodd" d="m364.182 1162.331 1.94-2.9 2.207-1.59 3.005-.92 2.169-.07 1.445-.213 3.12.177 2.092.036h1.18l1.712-.177 1.598-.354.95-.636 1.446-.814.685-.636.723.884 1.141-.813.57 1.06 1.104-.777.419.884.114.777.76-.282.523.699.767-.125.188.425-.175.912-.376 1.388.063 1.439.085.786.269 1.2.39.925.578 1.338.874 1.387.996 1.476.807 1.45.457 1.25.511 1.525v1.4l-.054 1.775-.457 1.75-1.345 2.65-1.157 1.35-1.425 1.276-.673.275-1.883-2.9-1.372-1.65-1.372-1.476-1.157-.975-1.264-.875-1.264-1.075-1.883-1.025-1.13-.625-1.318-.625-.754-.3-.618-.2-.565-2.65-.323-1.05-.134-.85-.113-.693-1.098-2.858-.457-1.275-.309-.18-1.331.6-.837.318-1.56.53-.99.531-.836.318-1.218-.247-1.179-.354-1.75-.141-1.598-.248z"></path><path fill="#a9d691" fill-rule="evenodd" d="M377.108 1162.38s2.976-.354 4.431-.68c1.143-.255 2.36-.42 3.36-.995.654-.376 1.185-.941 1.607-1.539.28-.395.585-1.312.585-1.312s-1.778.375-2.679.498c-.693.094-1.393.15-2.094.18-.778.034-1.56-.047-2.337 0-.866.054-1.739.123-2.58.318-.59.135-1.189.293-1.705.588-.51.29-.922.713-1.315 1.131-.39.417-1.023 1.358-1.023 1.358l-.146.634 2.338-.815.925-.452z"></path><path fill="#a9d691" fill-rule="evenodd" d="m364.484 1162.433 1.377-2.433 2.617-1.984 3.375-1.088 3.133-.128 2.376.192s1.969.173 3.615.032c.655-.056 3.475-.378 3.475-.378s-.46.99-3.37 1.118c-2.91.128-5.969-.269-8.679.7-5.36 2.733-4.94 4.397-5.99 4.097-.71-.038-1.369.288-1.93-.128z"></path><path fill="#4d7f40" fill-rule="evenodd" d="M393.104 1156.95s-2.28 2.688-2.853 4.279c-.759 2.11.3 4.604-.647 6.647-.682 1.473-2.512 3.462-4.222 3.253-3.644-.443-6.924-3.535-6.924-3.535l.608 2.793 5.326 2.9 2.625 2.12 3.12 2.97 1.636 2.052 1.331 1.768 2.55-1.839 1.521-2.298.875-2.652.076-2.51-1.027-3.89-1.978-3.324-.958-1.662-1.022-3.05-.108-2.376.323-1.625z"></path><path fill="none" stroke="#000" stroke-linecap="round" stroke-linejoin="round" d="M412.524 948.741c-1.955 7.194-6.743 11.738-11.68 11.738-6.79 0-11.676-8.811-11.676-20.443 0-1.405.08-2.777.233-4.105m57.754 1.603c.993 4.073.116 9.707-2.713 15.153-4.489 8.64-11.74 12.366-17.202 10.933-2.602-.682-4.176-.509-4.801-2.492-1.303-4.13.824-12.028 3.854-17.861a29.054 29.054 0 0 1 3.681-5.494m38.02 17.63c-1.527 4.289-5.541 7.352-10.253 7.352-6.026 0-10.91-5.009-10.91-11.187 0-.908.105-1.792.304-2.637" transform="matrix(.55093 0 0 .51205 137.074 705.546)"></path><path fill="none" stroke="#000" stroke-linecap="round" stroke-linejoin="round" d="M468.327 938.588c.75 2.35 1.295 4.998 1.295 7.606 0 3.585-.561 6.78-1.938 9.835m-28.168-47.29c13.52 5.17 24.191 16.33 28.938 30.328m-71.376-44.986a49.772 49.772 0 0 1 12.505-1.587c5.183 0 10.18.793 14.878 2.265m9.515 40.495c-6.315 4.664-16.012 6.887-22.684 6.887-14.17 0-26.725-6.909-34.482-17.541 0 0-.59-.817-.536-1.723.055-.905.568-1.402.568-1.402a9.836 9.836 0 0 0 3.083-5.507m.138.358c1.263-5.454 2.062-8.726 5.096-13.23m49.495-12.927c3.733 8.944 5.795 18.759 5.795 29.056m-19.87-22.246a75.138 75.138 0 0 1 14.266-6.782m-45.05-3.067a31.893 31.893 0 0 1 12.482 5.786" transform="matrix(.55093 0 0 .51205 137.074 705.546)"></path><path fill="#f1f1f1" fill-rule="evenodd" d="m350.13 1177.436-1.29-.408-.828-.475.292-1.63 1.12-3.258 1.096-1.923.755-1.064.73-.634.195-.113.633.589-1.242 1.855-.803 2.218-.366 2.195-.17 2.037z"></path><path fill="none" stroke="#000" stroke-linecap="round" stroke-linejoin="round" d="M384.97 903.292c0-5.978 2.052-11.367 4.903-16.156m33.35 64.17c-8.954-2.608-12.275-2.932-17.66-5.647m16.432 11.535c.846-2.534.036.427-2.495-2.66-1.108-1.35-2.075-3.531-3.071-4.812" transform="matrix(.55093 0 0 .51205 137.074 705.546)"></path><path fill="none" stroke="#000" d="M443.481 954.296h3.35" transform="matrix(.55093 0 0 .51205 137.074 705.546)"></path><path fill="none" stroke="#000" stroke-linecap="round" stroke-linejoin="round" d="M412.283 891.932c8.236-20.588 31.387-3.205 42.437-15.92m10.586 55.035c12.959-8.211 9.407-23.591 5.475-29.137-4.802-6.675-6.919-13.796-4.48-20.4" transform="matrix(.55093 0 0 .51205 137.074 705.546)"></path><path fill="none" stroke="#000" stroke-linecap="round" stroke-linejoin="round" d="M459.091 921.932c7.297-1.168 10.928-11.067 6.166-19.884-4.167-6.87-3.19-14.348-.752-20.953m-36.425 11.873c5.352-15.973 23.467-2.224 30.836-14.4" transform="matrix(.55093 0 0 .51205 137.074 705.546)"></path><path fill="none" stroke="#000" stroke-linecap="round" stroke-linejoin="round" d="m454.822 875.857 1.123 2.051s1.953-2.344 2.343-1.611c.391.732.83 2.295.83 2.295s1.612-2.246 2.295-1.66c.684.585.489 3.417.489 3.417s1.025-.927 1.709-.83c.683.098.879 1.612.879 1.612s1.123-.44 1.464-.39c.342.048.196 1.317.196 1.317l-.049-.195" transform="matrix(.55093 0 0 .51205 137.074 705.546)"></path><path fill="none" stroke="#000" stroke-linecap="round" stroke-linejoin="round" d="M465.306 931.047c12.959-8.211 9.407-23.591 5.475-29.137-4.802-6.675-6.919-13.796-4.48-20.4" transform="matrix(.55093 0 0 .51205 137.074 705.546)"></path><path fill="none" stroke="#000" stroke-linecap="round" stroke-linejoin="round" d="M459.091 921.932c7.297-1.168 10.928-11.067 6.166-19.884-4.167-6.87-3.19-14.348-.752-20.953m-36.425 11.873c5.352-15.973 23.467-2.224 30.836-14.4" transform="matrix(.55093 0 0 .51205 137.074 705.546)"></path><path fill="none" stroke="#000" stroke-linecap="round" stroke-linejoin="round" d="m454.822 875.857 1.123 2.051s1.953-2.344 2.343-1.611c.391.732.83 2.295.83 2.295s1.612-2.246 2.295-1.66c.684.585.489 3.417.489 3.417s1.025-.927 1.709-.83c.683.098.879 1.612.879 1.612s1.123-.44 1.464-.39c.342.048.196 1.317.196 1.317l-.049-.195m-53.818 10.069c8.236-20.588 31.387-3.205 42.437-15.92" transform="matrix(.55093 0 0 .51205 137.074 705.546)"></path><path fill="#17706c" fill-rule="evenodd" stroke="#000" d="M450.014 914.502c-12.357-1.668-6.396 5.264-2.793 11.52 1.268 2.202 6.547 2.248 8.697 1.313 1.418-1.748.078-6.688.078-6.688l-.512-1.684z" transform="matrix(.55093 0 0 .51205 137.074 705.546)"></path><path fill="#d9ede6" fill-rule="evenodd" d="m356.048 1163.535 1.85 1.403 9.378-1.763s-1.855-.364-3.018-.415c-1.087-.049-4.106.144-5.19.231-1.256.102-3.02.544-3.02.544z"></path><path fill="#196f6e" fill-rule="evenodd" stroke="#000" d="m397.482 945.011-4.463 1.377c-.31 2.133-2.417 4.927-.537 6.686 0 0 1.209 1.536 2.063 1.937.456.215 1.025.355 1.5.188 1.611-.569 3.026-2.065 3.562-3.688.346-1.045-.118-2.329-.427-3.275-.4-1.22-1.698-3.225-1.698-3.225z" transform="matrix(.55093 0 0 .51205 137.074 705.546)"></path><path fill="#d8ede6" fill-rule="evenodd" d="M351.867 1185.334s-.098 3.885.672 6.642c.361 1.294 1.186 2.603 1.737 3.314.604.779 1.703 1.292 1.703 1.292s.013-1.35.018-2.444c.01-2.21-1.037-7.392-1.037-7.392l-1.495-.627-1.391-.646z" opacity=".222"></path><path fill="#196f6e" fill-rule="evenodd" stroke="#000" d="m424.133 948.531 3.447-2.298s1.57-1.501 2.563-1.856c.473-.169 1.068-.34 1.503-.088.456.263.634.892.707 1.414-.35 2.308-.697 4.876-1.503 6.894-.26.636-.502 1.367-1.06 1.768-.564.404-1.349.33-2.033.442-.527.086-1.064.26-1.591.177-.639-.1-1.768-.796-1.768-.796l-.795-1.149-.442-1.237z" transform="matrix(.55093 0 0 .51205 137.074 705.546)"></path><path fill="#d7eee7" fill-rule="evenodd" d="m374.37 1185.703-.901 1.018-1.924 3.078s-.633 1.468-.9 2.218c-.25.7-.634 2.285-.634 2.285l-.048.86-.122.996s1.576-1.802 2.191-2.806c.672-1.097.87-2.016 1.072-3.078.349-1.846.633-2.58.633-2.58z" opacity=".376"></path><path fill="#196f6e" fill-rule="evenodd" stroke="#000" d="m434.782 940.175 1.459-.817 1.414-.774s.724 1.913.862 2.917c.067.49.202 1.04-.022 1.48a.804.804 0 0 1-.53.398c-.415.088-.874-.071-1.238-.287-.4-.237-.661-.659-.928-1.038-.41-.583-1.017-1.879-1.017-1.879zm14.594 3.596.928-.752 1.635-1.326 2.961-2.298s1.125-.526 1.636-.31c.617.262 1.104 1.68 1.104 1.68l.62 2.829s.33 1.673.309 2.519c-.018.687-.31 1.856-.354 2.033-.044.177-1.422 2.191-2.387 3.05-.528.47-1.106 1.056-1.811 1.104-.257.017-.507-.148-.708-.31-.607-.49-1.37-1.9-1.37-1.9l-.928-1.723-.663-2.343c-.198-.7-.663-1.222-.972-2.253zm11.109-5.568 1.505.728 1.443.717s-1.153 1.688-1.898 2.376c-.363.335-.738.761-1.227.83a.804.804 0 0 1-.63-.208c-.309-.29-.44-.757-.472-1.18-.035-.462.161-.918.32-1.355.243-.669.959-1.908.959-1.908z" transform="matrix(.55093 0 0 .51205 137.074 705.546)"></path><path fill="#18706e" fill-rule="evenodd" stroke="#000" d="M398.69 903.586c-.765 1.646 1.01 1.69 2.376 2.5.499.29 1.562.75 1.562.75l1.313.687s3.176-1.69 4.75-2.562c1.319-.731 2.672-1.38 3.937-2.188.804-.514 1.723-.937 2.313-1.687.236-.302.482-.682.437-1.063-.054-.46-.451-.836-.812-1.125a1.955 1.955 0 0 0-.875-.375c-1.52-.27-3.092.071-4.625.25-1.283.15-2.58.304-3.813.688-1.398.435-4 1.812-4 1.812zm8.143 10.647.265 2.829s2.243-.468 3.005-1.238c1.005-1.015 2.392-2.795 1.591-3.977-.33-.488-1.21-.19-1.768 0-1.232.42-3.093 2.386-3.093 2.386z" transform="matrix(.55093 0 0 .51205 137.074 705.546)"></path><g stroke="#000" stroke-width="1.832" transform="matrix(.56622 0 0 .52625 131.739 689.275)"><path fill="none" d="M423.94 914.488s2.512.889 5.145 6.816c2.475 5.572 1.386 8.668 1.386 8.668"></path><path fill="none" d="M425.783 913.836s-5 2-8.088 6.152c-3.656 4.915-4.912 10.848-4.912 10.848s4.047 1.639 9.07.95c6.93-.95 8.93-1.95 8.93-1.95"></path><path fill="none" d="M419.197 918.215s-1.485 3.728-.45 8.226c1.036 4.497 2.036 5.395 2.036 5.395"></path><ellipse cx="247.359" cy="985.638" fill="#fff" stroke-linecap="round" stroke-linejoin="round" rx="1.792" ry="4.528" transform="rotate(-10.589)"></ellipse></g><g stroke="#000" stroke-width="1.501" transform="matrix(.68768 0 0 .6453 95.975 627.081)"><path fill="none" d="M374.304 853.997s1.715-3.997 1.07-10.116c-.526-4.989-3.936-6.768-3.936-6.768"></path><path fill="none" d="M372.681 838.115s-1.873.618-4.022 5.714c-2.257 5.35-2.124 7.578-2.124 7.578s1.096.975 3.919 1.692c2.594.66 4.195.587 4.195.587"></path><path fill="none" d="M373.411 839.079s-1.975 2.471-3.009 6.459c-1.033 3.988-.587 7.147-.587 7.147"></path><ellipse cx="-514.831" cy="759.903" fill="#f1f1f1" stroke-linecap="round" stroke-linejoin="round" rx="1.216" ry="3.23" transform="matrix(-.9811 -.19347 -.1745 .98466 0 0)"></ellipse></g><path fill="#196f6e" fill-rule="evenodd" stroke="#000" d="m396.696 910.847 1.459-.818 1.414-.773s.724 1.912.862 2.917c.067.489.202 1.04-.022 1.48a.804.804 0 0 1-.53.398c-.415.087-.874-.071-1.238-.287-.4-.237-.661-.66-.928-1.039-.41-.582-1.017-1.878-1.017-1.878z" transform="matrix(.55093 0 0 .51205 137.074 705.546)"></path><path fill="#d7ede6" fill-rule="evenodd" stroke="#000" d="M395.827 956.501c-1.006-.52-2.556 4.073-2.556 4.073s4.724-1.254 4.374-2.227c-.28-.774-.896-1.37-1.818-1.846zm5.567 1.771c-.774-.439-1.967 3.438-1.967 3.438s3.635-1.058 3.365-1.88c-.215-.653-.69-1.156-1.398-1.558zm21.368 1.224c-.845-.456-2.146 3.57-2.146 3.57s3.966-1.1 3.671-1.952c-.234-.678-.752-1.2-1.525-1.618zm3.193 2.969c-1.1-.163-1.032 4.118-1.032 4.118s3.961-2.34 3.318-3.063c-.511-.574-1.277-.906-2.286-1.055zm5.143.787c-1.028.198.402 3.766.402 3.766s2.765-3.166 1.964-3.576c-.638-.326-1.423-.372-2.366-.19zm19.686-4.12c-.92-.501-2.2 3.388-2.2 3.388s4.23-.84 3.888-1.698c-.272-.684-.844-1.23-1.688-1.69zm4.48 1.959c-1.054-.211-1.257 3.644-1.257 3.644s3.98-1.873 3.403-2.56c-.459-.547-1.179-.89-2.145-1.084zm5.195.017c-1-.162-1.192 2.792-1.192 2.792s3.77-1.435 3.224-1.961c-.434-.42-1.116-.683-2.032-.831z" transform="matrix(.55093 0 0 .51205 137.074 705.546)"></path><path fill="none" stroke="#000" stroke-linecap="round" d="m402.65 928.27 1.375-.626m-4.5.25-.25-1.125" transform="matrix(.55093 0 0 .51205 137.074 705.546)"></path><path fill="#d8ede6" fill-rule="evenodd" d="m369.335 1169.22-2.042 1.775-.726.649s-.292.463-.327.793c-.05.473.027 1.103.218 1.206.299.16.652-.659.914-1.214.743-1.575 1.328-2.177 1.328-2.177l.617-.81"></path><path fill="none" stroke="#000" stroke-linecap="round" d="M415.43 913.57s.637-2.356 1.283-3.37c1.932-3.032 2.968-3.63 2.968-3.63" transform="matrix(.55093 0 0 .51205 137.074 705.546)"></path><g fill-rule="evenodd" stroke="#000"><path fill="#ab4b57" d="M253.106 812.603s-1.165 1.11-.62 1.326c2.58 1.019 12.586 3.598 17.855 6.276 7.774-1.841 11.287-2.05 21.567-2.21 0 0 4.463.262 6.63-.177 1.426-.289 4.065-1.59 4.065-1.59l-1.59 1.237s-5.192 4.895-8.31 6.54c-3.304 1.744-3.495 2.39-10.694 3.359-4.434.596-10.04-.253-10.04-.253s-4.495-.52-10.835-4.766c-2.113-1.415-8.78-8.593-8.78-8.593" transform="matrix(.55093 0 0 .51205 208.69 762.994)"></path><path fill="#d7ede6" d="M263.839 950.395c-.966-.037.42 3.567.42 3.567s2.567-2.333 1.808-2.883c-.604-.438-1.344-.65-2.228-.684zm30.53 1.442c-1.042.265 1.64 3.582 1.64 3.582s1.957-3.235.964-3.57c-.79-.267-1.649-.254-2.604-.012z" transform="matrix(.55093 0 0 .51205 206.612 694.684)"></path></g><path fill="#de8080" fill-rule="evenodd" d="M352.786 1183.91s5.566-.721 8.096-.525c2.555.199 7.608 1.953 7.608 1.953s-.36.284-1.38.557c-1.024.274-3.555.584-4.62.592-1.465.011-4.285-.202-5.696-.572-1.268-.491-2.88-1.31-4.008-2.006z"></path><path fill="#d9ede6" fill-rule="evenodd" d="m356.316 1178.384-.898.332c.79 1.391 2.053 1.855.898-.332z"></path></g><path fill="#33552b" fill-rule="evenodd" stroke="#000" stroke-linecap="round" stroke-linejoin="round" d="M401.423 1136.916c-.629.435-1.223.915-1.774 1.436-2.206 2.083-3.693 4.794-4.215 7.68a13.533 13.533 0 0 0 1.28 8.544c1.477 2.892 3.853 5.122 5.91 7.357 2.051 2.227 3.883 4.63 4.347 7.28a8.022 8.022 0 0 1-.855 5.167c-.854 1.576-2.271 2.902-3.958 3.707a9.755 9.755 0 0 1-5.543.822c-1.871-.276-3.388-.6-4.726-1.85-.535.334-1.032.704-1.918.71 1.656 1.547 4.004 2.708 6.32 3.05a11.913 11.913 0 0 0 6.811-1.01c2.088-.996 3.808-2.607 4.866-4.557a9.801 9.801 0 0 0 1.051-6.352c-.57-3.25-2.693-5.916-4.82-8.226-2.12-2.301-4.332-4.424-5.612-6.93a11.755 11.755 0 0 1-1.107-7.39c.45-2.486 1.747-4.85 3.647-6.645 1.9-1.795 4.417-3.037 7.078-3.491a14.337 14.337 0 0 1 7.948.927l.866-1.757a16.503 16.503 0 0 0-9.187-1.072 16.068 16.068 0 0 0-6.409 2.6z" color="#000" style="line-height:normal;text-indent:0;text-align:start;text-decoration-line:none;text-decoration-style:solid;text-decoration-color:#000;text-transform:none;block-progression:tb;white-space:normal;isolation:auto;mix-blend-mode:normal;solid-color:#000;solid-opacity:1" font-family="sans-serif" font-weight="400" overflow="visible"></path><path fill="#33552b" stroke="#000" stroke-linecap="round" stroke-linejoin="round" d="M423.415 1139.374c-3.213-1.846-4.591-.611-6.11-.611-1.52 0-2.752-1.145-2.752-2.557 0-1.413 1.232-2.557 2.751-2.557 1.52 0 6.501 1.688 6.111 5.725z"></path></g></svg>