<svg xmlns="http://www.w3.org/2000/svg" width="64" height="64" id="eevee"><g stroke-width="2.429" transform="matrix(.2735 0 0 .26365 -501.992 -355.92)"><ellipse cx="1944.373" cy="1575.131" fill="#ccc" rx="62.25" ry="16"></ellipse><path fill="#cc984f" fill-rule="evenodd" d="m2041.713 1442.395-24.138-4.77m0 0-6.364 9.016-8.308 7.424-8.663 5.303-11.844 5.48-10.872 3.006-1.414 2.21-1.945 2.74-.088 3.8.442.973 2.475.265 2.74.884 2.387 1.502.353.265-2.917 1.768-4.065 1.06 2.121 2.564 1.68 1.856 4.596 3.094 3.447 3.535 4.684 6.099 2.475 4.95 2.387 8.485.088 1.856 3.889.796 7.248.618 8.22-1.193 8.043-2.475 4.64-2.165 4.552-2.784 6.232-5.834 5.48-5.953 5-7.5 1.126-2.25 1.624-7.5 1.626-12 .624-10.625.376-11.25-.626-4.875-1.75-7.75-3.874-9.75-4.876-8-6.374-7.375-7.626-6.125-6.25-3.75-5.874-2.5-3.376-.875 1.876 3.25 2.25 7 .25 6.125-.876 4.625-1.187 4.187-3.688 5.875-3.562 4-3.375 3.25 5.938.375 5.562.75 4.813 1 1.124.625-.624 1.813 1.124 1.937.438 5-.875 4.625 2.375-.625 3.563-3.875 1.937-3.312 1.313 2.25 1 4.375v3.437l-1.188 4.5 2.125-1.125 1.875-2.312 2-3.375 1.438-3.688 2.624 3.313 2.626 1.625.874.562.75-2.75.25-3.062-.061-2.625"></path><path fill="#cc984f" fill-rule="evenodd" d="m1972.4 1486.895 7.75 6 5 5.875 2.624 5.125 2.75 7.375 1 8.125.25 7.875 1.626 8.5 3.374 8.25 2.25 4 .876 4.125.25 7.375-1 8.5-1.25 4.125-1 2.5-1.876 2.75-4.624 1.75h-5.126l-5.5-.875-3.5-3-.124-2.25 3.25-2.875 1.062-3.344-.531-3.469-1.438-1.969-1.343-1.781-12.063-12.75-3.109-4.909 1.326-5.745.972 1.59.973 1.857 1.06-.442 1.9-2.563.443-2.52.707-8.13-.31-2.874.928 1.105.266-3.182-.707-7.292-1.636-6.187-3.182-6.143 2.696 1.15 1.812.176-2.696-7.336-.795-1.061 1.06-.442v-3.8l-.84-1.592 2.564.796 3.624-.177z"></path><path fill="#fcf5cc" fill-rule="evenodd" d="m1951.712 1471.082-.062 5.25-1.313 4.813-.5 1.125.25.875 1.188.062 2.5.624 4.063 2.188 2.5 1.625 2.437 2.563 3 3.624.5.813.625-.938-.062-1.687-.187-2.063-.313-1.124-.688-.313 2.375.313 2.812.374 1.313-.25-.438-2.624-1.312-2.313-1.063-.688 3.75-1.062 3.438-1.688-3-1.874-4.125-1.376-4.625-.124-2.188-.126 6.25.313-.812-.813s-.188-.687-.188-1c0-.312-.125-2-.125-2l1.188-1.562 2.375-3.188.5-1-2.688.563-7.437 1.313-7.813 1.25z"></path><path fill="#cc984f" fill-rule="evenodd" d="m1945.774 1542.707-1 2.438-2.187 4.375-.563 1.937 2.25 2.688 1 2.687.376 2.875-.75 2.625-1.313 3.25-1.75 2.438-1.313 1.437-.061 1.688 1.562 2.625 2.5 1.125 3.188.875 2.062-.5 2.938-.625 4.187-3.875 3.813-5.688 2.375-5.375 1.5-5.75.5-5.375-.25-2.438-2.813-3.812-2.5 5.188-4.688-4.25-1.937-3.313-.375 3.5.563 3.625h-.688l-2.438-1.625-3.187-2.063z"></path><path fill="#cc984f" fill-rule="evenodd" d="m1919.868 1551.613.188 6.719-.469 7.625-.188 4.469-1.624 4.062-2.438 4.938.188.937 1.343 2.063 3.188 1.281 7.094-.031 5.03-2.25 2.84-1.584 1.973-2.541 1.407-4.094 1.687-6.187.938-6.5.312-5.25 1.438-6.125 2-4.375 1.25-1.75-3.05-2.732-3.624-3.933-1.547-2.475-.796 4.287-.574 2.077-.398.442-.972-.088-.619-.84-.972-1.149-1.06 3.934-.089.707-.397-.398-.973-2.166-1.767-1.944h-.354l-1.016 5.613-1.636 2.695-1.944 1.945-1.15-.133.089-1.149-.796-1.723-.618-.088zm-19.843-3.093-.5 2.75-1.876 6.5-3.124 4.875-4.126 4.5-1.374 2.875.75 2.25 2.124 2 4.376.75 6.25-.25 6.25-2.75 3.624-3.875 2-5.125.376-3.5-2.692-2.35-3.712-3.845-2.873-4.375-1.016-2.077-.398-.265-.265 1.856-.177 2.033-.928-.177-1.414-1.06z"></path><path fill="#cc984f" fill-rule="evenodd" stroke="#000" d="m1898.274 1357.395-6.874 8.75-5.25 9.625-3.626 11.25-2.374 10.25-.75 8 .124 8.875.626 8.125 2.874 10.5 2.626 7.75-.04.906-2.342 3.535-3.668 7.16-2.21 6.364-2.386 5.7-1.37 2.608-2.563 2.52.176 4.905.884 6.187 2.254 5.7 2.74 4.111 3.005 3.8 3.403 3.271 4.331 3.226 2.696 1.326 7.955 3.536 5.348 1.06 4.95.707 10.739-.75 9.987-2.83 8.088-4.86 6.522-6.057 3.952-6.053 2.033-4.95 1.414-5.48.088-5.038 3.763-.542 11.375-1.562 11.625-2.938 9.062-3.5 7.438-3.625 9.437-6 5-4.5 5.75-6.812 2.313-3.938.937-2.187-3.687-1.125-9.188-1.125-11.187-.313-13.5 1.625-13.438 3.813-8.5 3.937-9.25 6-.687-.562-9.688-15.563-1.156.469-2.594-2.188-2.312-3.156-.875-1.875-.062 2.688-.719 1.343-.969-.312-1.75-2-.812-2.063-.156-.625-.688 2.157-.469 1.343-.937.5-.781.219-1.25-1.25-.22-1-.78-2.5-1.47-1.969-1.343-1.718-1.25-.75.125 1.625-.344 2.78-.094 1.595-.125.562-.75.344-.812-.563-1.906-3.062-2.282-2.094-1.875-1 .875 2.156.594 2.625-.156.907-.719.5-.781.437-2.5-1.062-1.469-1.375-.812-1.094 1.25 2.844s-.125.312-.188.437c-.062.125-.406.906-.406.906l-.813.813-1.78.531-1.782-.094-2.125-.437-.219-.938.313-.625 1.906-4.937 1.678-6.701.978-9.58-.219-4.626-.468-7.281-1.657-7.344-1.687-9.156-.469-2.406-1.312-9.25.063-4.938.125-2.937z"></path><path fill="#fcf5cc" fill-rule="evenodd" d="m1933.712 1538.52 1.25 1.75.938.75.624-.875.563-1.875.625-4.563 2.375 3.625 2.125 2.563 4.375 3.312 1.813 1.063 3.25 2.25 1.124.75.313-.688-.75-3 .375-3.125.188-.563 1.812 2.876 1.25 1.187 1.75 2.063 1.688 1.437 1.374-2.438 1.376-3.624 1.25-6.125 1 3.125 1.312 1.125 1.063-.375 1.965-5.133.442-3.712.265-4.508-.297-2.272 1 1 .124-6.375-.874-5.375-1.25-4.625-2.376-5.125-1-1.75 2.25 1 1.876.75.5-.625-1-3.375-2.126-4.125-2.874-4.125-3.126-3.125-3.5-2.375-3.624-1.875-3.126-.25-2 3.75-2.25 3.5-3.75 4.375-3.874 3.5-5 3-2.626 2-1.25-.125 1.75 2.375 2.25 4.187.876 3.75.374 3.813v1.062l-1.687-1.063-.563-.374 1.188 6.187.375 4.375.062 9.125-.5 2.063z"></path><path fill="#fcf5cc" fill-rule="evenodd" d="m1889.853 1501.618-1.944 2.121-3.005 5.657-2.74 5.745-.884 4.685 1.59-2.563 1.415-2.563 1.68-1.768 1.502-.354-.619 2.121-1.149 3.36-.795 4.684v6.894l.176 4.066.884-1.414 1.15-2.387 1.237-1.414.442-.088.176 2.829 1.591 4.33 1.68 4.155 2.121 3.447 2.121 2.475 3.27 3.005 2.387 1.414 1.326.619.619.088-.442-1.768.442-1.768.442-.265 1.59 2.74 2.21 2.917 1.238 2.387 2.298 1.944 2.21 2.033.707.265.707-.884 3.094-4.419 2.21-4.773 1.237-3.182.353-.265.796 1.502.618 1.857v.707l2.564-3.006 1.68-3.623.706-3.006.177-1.944 2.74 3.447.265.972.354.619.884-2.74.442-4.331.176-5.834-.353-8.397-.796-2.828v-1.945l1.503 1.238.619-1.414-1.061-5.392-1.414-4.773-1.15-1.856-1.148-.796-.619-1.06-5.745 2.563-8.662 1.503-6.364-.266-7.779-1.06-5.922-1.68z"></path><path fill-rule="evenodd" d="m1951.9 1455.77 2.812-2.625 4.125-3.188 4.063-2.688 9.437-3.812 8.75-1.875 7.375-.813 11.563-.187 4.25.062 1.25.438.5.124-4.626 4.876-10.124 7.937-8 3.688-8.188 2.937-8.125 1.313-5.688.687-3.874.688-3.376.624v-.562l.626-.938.25-1.312-.188-.563-.75-.624-1.563-.376 1.063-.812.625-.875.125-.875-.625-.688h-.938zm-64.787-23.846.752.972.442-1.414.84-.354 1.192.31.442.486.752.31.31-.222.441-.972.31-1.37.795-.398.84.088.441.398.663.398.442-.575.687-4.187 1.125-5.875.938-15.25-.188-4.5-.375-6.375-.938-7.375-1-6.187-1-3.625-.562-1.875-1.813 2.75-2.562 5.875-1.75 5.875-2.125 10.062-.778 11.33.088 5.834.53 7.248 1.06 7.336z"></path><path fill="none" stroke="#000" stroke-linecap="round" stroke-linejoin="round" d="M1881.386 1520.533c-1.11-4.137 5.549-15.966 7.65-18.228.31-.28.625-.554.943-.819m40.206 2.83c3.054 4.012 4.099 8.23 4.43 13.59m-53.139 2.421c1.382-3.556 3.302-6.378 5.547-8.079m-1.746 22.031c-.303-1.943-.462-5.592-.462-7.647 0-5.075.969-9.866 2.686-14.095m-2.18 21.884c.852-2.84 2.037-5.095 3.422-6.454m42.235-13.093c.82 1.631 1.962 2.926 3.296 3.706"></path><path fill="none" stroke="#000" stroke-linecap="round" stroke-linejoin="round" d="M1932.232 1516.597c.616 1.884 1.116 7.105 1.354 9.146.586 5.041.324 13.151-1.41 17.61m-28.698 7.248c-7.998-3.553-13.819-12.145-14.525-22.395m14.741 22.424c-.09-1.604.124-2.994.634-3.987m10.228 12.74c-3.173-2.358-6.19-5.718-8.598-9.836a36.917 36.917 0 0 1-1.534-2.912m17.54-1.302c-.884 3.757-2.696 7.755-5.39 11.494a35.815 35.815 0 0 1-1.968 2.491m7.559-13.653c.78 1.272 1.25 2.485 1.332 3.485m5.275-11.072v.254c0 4.634-2.079 8.74-5.278 11.274m5.423-11.168c1.736 1.727 2.777 3.375 2.961 4.733m17.624-60.272c9.39 1.102 17.14 9.091 19.857 19.803m-4.754-1.45c1.535.988 3.176 1.524 4.721 1.518"></path><path fill="none" stroke="#000" stroke-linecap="round" stroke-linejoin="round" d="M1964.805 1501.297c1.099 1.65 3.161 6.482 3.753 8.45 1.79 5.95 1.832 10.46 1.354 15.22m-1.277-4.999c.469 1.927.756 7.173.64 9.224-.351 6.204-3.227 15.581-5.803 6.643m-.052-.892c-.233 3.14-1.095 6.56-2.606 9.848-.354.77-.732 1.507-1.129 2.207m-.351.393c-2.086-1.482-4.022-3.515-5.505-5.938a19.64 19.64 0 0 1-.932-1.703m.156 7.21c-.695-2.883-.806-5.428-.294-7.299m.268 7.788c-8.297-5.422-11.847-7.39-15.409-14.088m.01.219c-.449 3.155-.48 11-4.113 4.816m58.134-18.751c0 .799-.023 1.593-.072 2.38"></path><path fill="none" stroke="#000" stroke-linecap="round" stroke-linejoin="round" d="M1999.34 1548.726c-2.157-3.452-3.943-7.128-5.304-11.32-1.994-6.14-2.781-12.287-2.502-18.012m7.569 29.004c.792 3.068 1.046 6.55 1.046 9.997 0 5.737-1.196 11.087-3.261 15.596m-.181-.368h0v.12c-.116 3.113-4.694 5.616-10.325 5.616-5.703 0-10.326-2.568-10.326-5.736 0-.49.183-.606.57-.922 1.096-.895 1.873-2.246 3.003-2.951m-8.552-83.74c12.534 7.118 20.175 19.178 20.175 34.51 0 .474-.01.947-.023 1.419m-25.718-33.396c2.305.626 4.693.79 6.87.452m-2.997-5.71c2.644-.501 5.153-1.504 7.206-2.905m-14.227-3.415a27.059 27.059 0 0 0 5.88-7.66m-5.647 7.845c5.266-.052 9.428-.077 13.91 3.218m-7.194 2.995c1.659 1.074 2.822 3.199 3 5.328m-6.254.054c.835 1.247 1.062 3.268.625 5.085m1.567-16.777c-1.209-4.38 1.244-6.435 3.166-8.5"></path><path fill="none" stroke="#000" stroke-linecap="round" stroke-linejoin="round" d="M1977.218 1560.11c2.002 1.541 3.233 3.636 3.233 5.943 0 2.513-1.46 4.774-3.786 6.342"></path><path fill="none" stroke="#000" d="M1977.623 1560.22c-5.126-5.434-10.378-9.929-15.291-17.767"></path><path fill="none" stroke="#000" stroke-linecap="round" stroke-linejoin="round" d="M1964.815 1546.271a36.9 36.9 0 0 1 .084 2.498c0 9.965-4 18.338-10.42 24.712"></path><path fill="none" stroke="#000" stroke-linecap="round" stroke-linejoin="round" d="M1956.136 1572.12c-3.636 5.047-15.503 4.63-15.877-2.209 0-.491.448-1.136.835-1.453 1.096-.895 1.961-1.98 2.649-3.57m-1.21-13.16c1.806 1.933 2.917 4.57 2.917 7.475-.05 1.834-.62 4.267-1.524 5.777"></path><path fill="none" stroke="#000" stroke-linecap="round" stroke-linejoin="round" d="M1941.193 1557.133a28.84 28.84 0 0 1 1.056-6.221c.86-3.038 2.146-5.772 3.703-8.067"></path><path fill="none" stroke="#000" d="M1941.274 1556.77c-.286 7.972-2.212 13.978-4.124 20"></path><path fill="none" stroke="#000" stroke-linecap="round" stroke-linejoin="round" d="M1937.21 1576.59c-3.488 7.886-20.612 9.853-21.761 3.345"></path><path fill="none" stroke="#000" d="M1915.274 1580.02c.817-3.443 3.15-6.151 4.313-9.875"></path><path fill="#9f6e34" fill-rule="evenodd" d="M1922.098 1546.457c-.397 2.2-1.056 4.222-2.512 5.708l.146 10.258c7.624-.58 16.674-1.449 19.824 5.85 1.121-9.674 2.066-19.545 6.405-25.62-2.984-2.2-5.89-4.681-8.29-9.005.365 2.739-.073 4.938-1.13 6.722-1.862-.358-2.83-1.348-3.516-2.537-.445 3.541-.844 3.932-.754 6.341-.807-3.754-2.266-4.744-3.642-6.087.268 6.196-2.135 8.837-4.396 11.668-1.855-.784-1.453-2.19-2.135-3.298z"></path><path fill="none" stroke="#000" d="m1919.556 1570.3.5-19"></path><path fill="#9f6e34" fill-rule="evenodd" d="M1899.62 1548.271c.455 4.79-2.748 10.609-2.125 9.938 13.05.247 14.585 4.497 14.125 9.687 2.057-.7 2.209-4.874 2.956-8.58-4.105-1.844-7.826-7.147-10.519-12.482.258 1.482.197 2.891-.625 4.125-1.53-.711-2.864-1.562-3.812-2.688z"></path><path fill="none" stroke="#000" stroke-linecap="round" stroke-linejoin="round" d="M1914.69 1559.71c-.897 9.958-7.105 15.31-16.79 15.31-2.347 0-4.591-.458-6.659-1.292m-.051-.162c-1-.812-1.955-2.352-1.955-3.447 0-1.304.715-2.895 2.083-3.768m8.443-17.962c-.08 3.024-1.074 6.696-2.974 10.325-1.578 3.015-3.535 5.533-5.551 7.325m143.485-121.008c-.795 3.096-2.612 6.841-5.406 9.347a30.684 30.684 0 0 1-1.989 1.64m-.952-14.777c1.612 3.434 2.65 8.114 1.665 12.213a29.09 29.09 0 0 1-.816 2.78m-1.008-15.263c-1.122 2.679-3.205 5.722-5.938 7.397-.64.392-1.282.745-1.924 1.059m-.644-12.385c1.083 2.942 1.714 6.892.886 10.255a26.125 26.125 0 0 1-.668 2.275m23.436-7.702c.482 2.11.59 4.896-.215 7.186a19.598 19.598 0 0 1-.615 1.543m-.133-.076c-1.825-.885-3.886-2.375-4.998-4.146-.26-.414-.493-.828-.7-1.237m7.189-3.154c1.66.962 3.532 2.579 4.54 4.496.235.45.446.897.633 1.34"></path><path fill="#9f6e34" fill-rule="evenodd" d="m1991.842 1515.83-3.998-12.25c45.628-2.418 55.71-23.349 61.213-55.48 4.47 41.134-18.24 73.799-57.215 67.73z"></path><path fill="none" stroke="#000" stroke-linecap="round" stroke-linejoin="round" d="M2048.417 1440.177c-.042 2.11-.335 4.692-.977 6.475-.15.417-.307.808-.466 1.173m-38.062-14.275c-.309-.885-.456-2.028-.139-2.926.074-.21.158-.411.25-.602m-.297.093c-.92.183-2.072.171-2.918-.267a5.817 5.817 0 0 1-.561-.33"></path><ellipse cx="2279.196" cy="703.682" stroke="#000" stroke-linecap="round" stroke-linejoin="round" rx="4.75" ry="10.5" transform="rotate(20.575)"></ellipse><ellipse cx="2340.661" cy="771.875" stroke="#000" stroke-linecap="round" stroke-linejoin="round" stroke-width="2.431" rx="5.275" ry="10.868" transform="matrix(.94624 .32348 -.38107 .92455 0 0)"></ellipse><path fill="none" stroke="#000" stroke-linecap="round" d="M1885.462 1477.395c3 1.651 6 1.73 9 1.75 3.44 3.158 7.678 5.93 11.188 7.312"></path><path fill="none" stroke="#000" stroke-linecap="round" stroke-linejoin="round" d="M1902.024 1484.55c1.79 1.618 2.921 1.947 2.87 2.024-2.976 4.556-6.176 8.103-10.088 8.383-4.986.357-7.26-4.644-7.219-10.406.014-2.027.152-3.793.44-5.705"></path><ellipse cx="2213.41" cy="925.494" stroke="#000" stroke-linecap="round" stroke-linejoin="round" rx="1.781" ry=".969" transform="rotate(15.186)"></ellipse><path fill="none" stroke="#000" stroke-linecap="round" d="M1917.563 1458.44c1.512-2.463 2.887-2.317 4.287-2.651m-29.168-9.944c1.445 1.274 2.119 2.645 1.68 4.154"></path><path fill="#fcf5cc" fill-rule="evenodd" d="m2009.133 1394.58 2.254 4.198 1.812 6.099.177 4.287-.442 5.922-1.59 4.198-2.918 6.055-2.475 2.475-1.104 1.635 1.723.884 2.475-.31-.398 2.299.221 1.104 2.21.442 6.452 1.194.973.088-.354 1.679-.22 1.237.397.928.751 3.36-.353 4.551-.398 2.033-.133.663 1.37-.884 1.812-.751 3.094-3.403s1.016-1.503 1.237-2.033c.221-.53.752-1.458.752-1.458s.972 1.546 1.016 2.121c.044.574.177 1.503.221 1.944.044.442.265 1.282.353 2.21.088.928.62 4.022.62 4.287 0 .265-.796 2.607-.796 3.05 0 .441-.177 1.281-.177 1.281s.884-.84 1.105-.972c.22-.133 1.635-1.326 1.812-1.68.177-.353.84-1.944.972-2.165.133-.221 1.68-1.989 1.724-2.166.044-.176.618-1.767.795-2.165.177-.398.575-1.768.575-1.768s.928 1.017 1.149 1.635c.22.62.972 1.635 1.546 2.033.575.398.62.354 1.105.619.486.265.663.177 1.061.486.398.31.972.707.972.707l1.017-2.342s.088-1.326.132-1.547c.044-.22.088-1.37.133-1.635.044-.265 0-1.15-.044-1.414-.044-.265-.31-1.282-.31-1.282l.266-.353s.707.53 1.149.663c.442.132.751.486 1.06.795.31.31.354.884 1.061 1.37.707.486 1.193.707 1.15 1.06-.045.354.043.487.308.84.266.354.398.884.575.928.177.044-.088-.442.177-.75.265-.31.442-.575.486-.885.044-.31 0-1.149.088-1.414.088-.265.398-1.37.442-2.033.044-.663.088-1.016.177-1.326.088-.31.31-1.06.31-1.06l-.664-3.227-.972-3.889-.972-2.828-1.9-5.215-4.067-6.983-2.386-3.712-4.287-4.95-4.228-4.07-4.063-2.938-4.937-3.188-4.938-2.375-3.875-1.625z"></path><ellipse cx="2480.929" cy="478.507" fill="#9f6e34" rx="1.679" ry="5.303" transform="rotate(25.137)"></ellipse><path fill="#a06e34" fill-rule="evenodd" d="M1896.87 1504.826c37.75 4.875 52.374-21.75 52.374-21.75-3.653 10.268-10.642 16.895-19.625 20.5-11.778 4.695-21.288 3.715-32.75 1.25z"></path><path fill="#d5c1a0" fill-rule="evenodd" d="M1894.963 1504.567c23.121 6.76 34.56-1.408 34.56-1.408-3.856 4.422-8.352 6.996-14.366 7.053-7.88.06-13.654-2.188-20.194-5.645z"></path><path fill="none" stroke="#000" stroke-linecap="round" stroke-linejoin="round" d="M1877.454 1458.456a48.306 48.306 0 0 1 8.343-17.441m25.602 65.997c-22.243 0-40.275-15.723-40.275-35.118m0 0c0-.79.03-1.574.09-2.35m80.44 1.207c.014.38.021.76.021 1.143 0 19.395-18.032 35.118-40.275 35.118m-33.277-50.891c-1.064 4.405-3.284 9.39-6.883 13.051m78.68-21.094c11.641-9.202 29.076-15.05 48.563-15.05 7.075 0 13.879.772 20.234 2.194m-.2-.303c-7.387 18.877-33.843 33.432-66.715 36.179m57.105-76.75c2.958 4.53 4.602 9.543 4.602 14.816 0 8.98-4.767 17.206-12.678 23.574m43.979 54.911c-9.835 17.707-25.218 29.37-42.786 29.37-3.643 0-7.203-.492-10.643-1.43"></path><path fill="none" stroke="#000" stroke-linecap="round" stroke-linejoin="round" d="M2008.284 1394.189c23.812 6.551 41.365 29.12 41.365 55.955 0 1.672-.067 3.328-.201 4.964m.185-9.29c0 9.542-1.531 33.295-4.824 41.642m-159.126-46.955c-4.036-9.598-6.283-20.258-6.283-31.486 0-20.183 7.263-38.536 19.122-52.175m4.246 32.957c1.248 4.57 1.493 9.913 1.493 14.944 0 7.912-1.795 16.051-4.747 22.673m.548-52.053c-1.117-6.288-2.037-14.063-1.037-18.877"></path><path fill="none" stroke="#000" d="M1900.106 1375.046s.398 4.246 1.945 10.518c.39 1.58.843 5.038.843 5.038"></path><path fill="none" stroke="#000" stroke-linecap="round" stroke-linejoin="round" d="M1905.909 1423.414c.695 1.019.93 2.107.543 3.038-.796 1.916-3.926 2.436-6.991 1.163m10.65-8.254c.075.106.15.215.224.325 1.825 2.733 2.148 5.55.721 6.292-1.35.703-3.782-.704-5.586-3.173-.102-.14-.203-.284-.301-.431m5.022-3.06c2.765 1.32 4.999 3.518 6.308 6.216m1.841-6.339c.242.996.372 2.05.372 3.14 0 1.233-.166 2.419-.471 3.526m.142-6.626c2.653 1.826 4.62 4.68 5.399 8.032m3.755-3.574a5.826 5.826 0 0 1-1.494 4.732"></path><path fill="none" stroke="#000" stroke-linecap="round" stroke-linejoin="round" d="M1932.027 1424.957c.375 2.397.159 4.228-.63 4.448-1.031.288-2.961-2.36-3.926-5.818m11.206 8.998c-.904.54-2.95-1.22-4.57-3.931-.88-1.474-1.783-2.582-1.978-3.687"></path><path fill="none" stroke="#000" stroke-linecap="round" d="m1939.274 1432.145 10 16.062"></path><path fill="none" stroke="#000" stroke-linecap="round" stroke-linejoin="round" d="M1887.82 1435.15c-1.71-6.62-2.42-15.704-2.42-23.88 0-15.6 3.554-29.355 8.962-37.491m.119-.042c2.77 8.508 3.954 18.432 4.007 30.374.042 9.38-1.065 18.645-2.981 26.205"></path><path fill="none" stroke="#000" d="M1887.997 1435.769s-.605-3.71.707-4.42c1.08-.583 3.36 1.503 3.36 1.503s-.01-2.876 1.06-3.359c.793-.357 2.386 1.06 2.386 1.06m20.89-5.096c1.499 1.832 1.63.153 2.156.188m5.156 1.359c.605 2.483 2.068 1.599 2.5 1.312"></path><path fill="none" stroke="#000" stroke-linecap="round" stroke-linejoin="round" d="M2006.329 1440.921c-5.919 6.71-13.133 12.96-24.12 17.64-8.932 3.804-21.848 3.684-29.333 5.877"></path><path fill="none" stroke="#000" stroke-linecap="round" stroke-linejoin="round" d="M1951.438 1456.114c4.958-5 12.174-10.553 23.748-13.499 9.09-2.313 23.721-3.109 31.27-1.707"></path><path fill="none" stroke="#000" d="M1951.15 1456.223s2.947-.136 3.28.953c.338 1.1-2.202 2.656-2.202 2.656s2.431.241 2.734 1.188c.4 1.25-2.031 3.375-2.031 3.375"></path><path fill="none" stroke="#000" stroke-linecap="round" stroke-linejoin="round" d="M1881.386 1520.533c-1.11-4.137 5.549-15.966 7.65-18.228.31-.28.625-.554.943-.819m40.206 2.83c3.054 4.012 4.099 8.23 4.43 13.59m-53.139 2.421c1.382-3.556 3.302-6.378 5.547-8.079"></path><path fill="#d5c1a0" fill-rule="evenodd" d="M1885.062 1532.765c-.422-.293 1.145-11.59 3.005-11.402-.466 2.26 11.336 14.99 12.02 13.877-.982-1.129-.043-3.44 2.034-6.452.917 5.956 6.288 9.817 11.048 13.965 3.87-2.794 5.335-7.65 5.922-13.258 1.5 2.671 2.097 5.589 6.01 7.602 2.876-2.692 2.573-6.178 2.74-9.546 2.215 2.034 5.502 4.233 5.675 7.175l-1.343 8.204c-.131-2.08-2.039-2.568-2.933-4.856-.885 4.71-2.34 8.366-5.11 10.955l-1.857-3.359c-1.485 6.364-6.904 13.018-8.22 12.64-3.848-2.888-7.21-6.458-9.811-12.198l-.442 4.685c-10.49-4.75-13.633-14.855-15.291-23.158z"></path><path fill="none" stroke="#000" stroke-linecap="round" stroke-linejoin="round" d="M1885.277 1534.279c-.303-1.943-.462-5.592-.462-7.647 0-5.075.969-9.866 2.686-14.095m-2.18 21.884c.852-2.84 2.037-5.095 3.422-6.454m42.235-13.093c.82 1.631 1.962 2.926 3.296 3.706"></path><path fill="#d5c1a0" fill-rule="evenodd" d="M1933.517 1533.173c1.794.117 3.32-.97 3.712-7.16 3.334 4.275 7.274 7.54 12.021 9.458-.636-1.587.553-4.656 1.768-7.867 2.845 2.277 5.646 4.563 7.336 7.071 3.255-.863 3.907-4.886 3.89-9.722l2.21 1.06c1.6-3.01.553-7.675.441-11.755l6.01 4.42-.972 6.098-1.414-3.624c1.89 8.492.083 13.699-2.21 18.473-1.449-1.117-2.585-2.39-3.093-3.977 1.481.987-3.346 12.471-3.801 11.755-.049-.216-6.885-6.727-6.364-7.248l-.53 6.895c-5.687-3.192-11.011-7.047-15.291-12.817.532 3.066.145 5.213-.973 6.63 0 0-3.093-1.768-2.916-2.21.176-.442.176-5.48.176-5.48z"></path><path fill="none" stroke="#000" stroke-linecap="round" stroke-linejoin="round" d="M1932.232 1516.597c.616 1.884 1.116 7.105 1.354 9.146.586 5.041.324 13.151-1.41 17.61m-28.698 7.248c-7.998-3.553-13.819-12.145-14.525-22.395m14.741 22.424c-.09-1.604.124-2.994.634-3.987m10.228 12.74c-3.173-2.358-6.19-5.718-8.598-9.836a36.917 36.917 0 0 1-1.534-2.912m17.54-1.302c-.884 3.757-2.696 7.755-5.39 11.494a35.815 35.815 0 0 1-1.968 2.491m7.559-13.653c.78 1.272 1.25 2.485 1.332 3.485m5.275-11.072v.254c0 4.634-2.079 8.74-5.278 11.274m5.423-11.168c1.736 1.727 2.777 3.375 2.961 4.733m17.624-60.272c9.39 1.102 17.14 9.091 19.857 19.803m-4.754-1.45c1.535.988 3.176 1.524 4.721 1.518"></path><path fill="#9f6e34" fill-rule="evenodd" d="M1970.688 1521.132c.836.62 3.862 30.406.884 32.704 1.112.85-9.409-10.833-9.104-11.535.346-.793 1.594-4.948 1.061-5.303 1.332 1.827 1.914 1.78 2.828 2.563 2.128-3.969 3.535-8.452 2.387-14.76l.884.707z"></path><path fill="none" stroke="#000" stroke-linecap="round" stroke-linejoin="round" d="M1964.805 1501.297c1.099 1.65 3.161 6.482 3.753 8.45 1.79 5.95 1.832 10.46 1.354 15.22m-1.277-4.999c.469 1.927.756 7.173.64 9.224-.351 6.204-3.227 15.581-5.803 6.643"></path><path fill="#9f6e34" fill-rule="evenodd" d="M1946.2 1543.337c-.853.717-1.527 1.555-1.678 2.74-1.211 2.4-1.273 3.459-1.857 5.127 1.641 2.549 3.127 5.443 2.652 10.695 8.21-1.403 11.279 2.333 13.877 6.54 2.72-6.783 9.654-20.739 2.961-25.5-1.737 1.875-1.783 3.606-3.138 4.376-3.936-1.761-4.678-4.8-6.452-7.425.597 2.29-.329 4.124.53 7.071-3.116-.4-4.915-2.22-6.894-3.624z"></path><path fill="none" stroke="#000" stroke-linecap="round" stroke-linejoin="round" d="M1963.42 1534.943c-.233 3.14-1.095 6.56-2.606 9.848-.354.77-.732 1.507-1.129 2.207m-.351.393c-2.086-1.482-4.022-3.515-5.505-5.938a19.64 19.64 0 0 1-.932-1.703m.156 7.21c-.695-2.883-.806-5.428-.294-7.299m.268 7.788c-8.297-5.422-11.847-7.39-15.409-14.088m.01.219c-.449 3.155-.48 11-4.113 4.816m58.134-18.751c0 .799-.023 1.593-.072 2.38"></path><path fill="none" stroke="#000" stroke-linecap="round" stroke-linejoin="round" d="M1999.34 1548.726c-2.157-3.452-3.943-7.128-5.304-11.32-1.994-6.14-2.781-12.287-2.502-18.012m7.569 29.004c.792 3.068 1.046 6.55 1.046 9.997 0 5.737-1.196 11.087-3.261 15.596m-.181-.368h0v.12c-.116 3.113-4.694 5.616-10.325 5.616-5.703 0-10.326-2.568-10.326-5.736 0-.49.183-.606.57-.922 1.096-.895 1.873-2.246 3.003-2.951m-8.552-83.74c12.534 7.118 20.175 19.178 20.175 34.51 0 .474-.01.947-.023 1.419m-25.718-33.396c2.305.626 4.693.79 6.87.452m-2.997-5.71c2.644-.501 5.153-1.504 7.206-2.905m-14.227-3.415a27.059 27.059 0 0 0 5.88-7.66m-5.647 7.845c5.266-.052 9.428-.077 13.91 3.218m-7.194 2.995c1.659 1.074 2.822 3.199 3 5.328m-6.254.054c.835 1.247 1.062 3.268.625 5.085"></path><path fill="none" stroke="#000" stroke-linecap="round" stroke-linejoin="round" d="M1977.218 1560.11c2.002 1.541 3.233 3.636 3.233 5.943 0 2.513-1.46 4.774-3.786 6.342"></path><path fill="none" stroke="#000" d="M1977.623 1560.22c-5.126-5.434-10.378-9.929-15.291-17.767"></path><path fill="none" stroke="#000" stroke-linecap="round" stroke-linejoin="round" d="M1964.815 1546.271a36.9 36.9 0 0 1 .084 2.498c0 9.965-4 18.338-10.42 24.712"></path><path fill="none" stroke="#000" stroke-linecap="round" stroke-linejoin="round" d="M1956.136 1572.12c-3.636 5.047-15.503 4.63-15.877-2.209 0-.491.448-1.136.835-1.453 1.096-.895 1.961-1.98 2.649-3.57m-1.21-13.16c1.806 1.933 2.917 4.57 2.917 7.475-.05 1.834-.62 4.267-1.524 5.777"></path><path fill="none" stroke="#000" stroke-linecap="round" stroke-linejoin="round" d="M1941.193 1557.133a28.84 28.84 0 0 1 1.056-6.221c.86-3.038 2.146-5.772 3.703-8.067"></path><path fill="none" stroke="#000" d="M1941.274 1556.77c-.286 7.972-2.212 13.978-4.124 20"></path><path fill="none" stroke="#000" stroke-linecap="round" stroke-linejoin="round" d="M1937.21 1576.59c-3.488 7.886-20.612 9.853-21.761 3.345"></path><path fill="none" stroke="#000" d="M1915.274 1580.02c.817-3.443 3.15-6.151 4.313-9.875m-.031.156.5-19"></path><path fill="none" stroke="#000" stroke-linecap="round" stroke-linejoin="round" d="M1899.76 1548.39c-.078 3.023-1.073 6.694-2.973 10.324-1.578 3.015-3.535 5.533-5.551 7.325m143.485-121.008c-.795 3.096-2.612 6.841-5.406 9.347a30.684 30.684 0 0 1-1.989 1.64m-.952-14.777c1.612 3.434 2.65 8.114 1.665 12.213a29.09 29.09 0 0 1-.816 2.78m-1.008-15.263c-1.122 2.679-3.205 5.722-5.938 7.397-.64.392-1.282.745-1.924 1.059m-.644-12.385c1.083 2.942 1.714 6.892.886 10.255a26.125 26.125 0 0 1-.668 2.275m23.436-7.702c.482 2.11.59 4.896-.215 7.186a19.598 19.598 0 0 1-.615 1.543m-.133-.076c-1.825-.885-3.886-2.375-4.998-4.146-.26-.414-.493-.828-.7-1.237m7.189-3.154c1.66.962 3.532 2.579 4.54 4.496.235.45.446.897.633 1.34"></path><path fill="none" stroke="#000" stroke-linecap="round" stroke-linejoin="round" d="M2048.417 1440.177c-.042 2.11-.335 4.692-.977 6.475-.15.417-.307.808-.466 1.173m-38.062-14.275c-.309-.885-.456-2.028-.139-2.926.074-.21.158-.411.25-.602m-.297.093c-.92.183-2.072.171-2.918-.267a5.817 5.817 0 0 1-.561-.33"></path><ellipse cx="2279.196" cy="703.682" stroke="#000" stroke-linecap="round" stroke-linejoin="round" rx="4.75" ry="10.5" transform="rotate(20.575)"></ellipse><ellipse cx="2340.661" cy="771.875" stroke="#000" stroke-linecap="round" stroke-linejoin="round" stroke-width="2.431" rx="5.275" ry="10.868" transform="matrix(.94624 .32348 -.38107 .92455 0 0)"></ellipse><path fill="#f1839d" fill-rule="evenodd" d="m1888.174 1478.637 2.563.53 2.917-.088.707.266.619.441 2.74 2.387 2.74 1.591 3.535 2.298.796.619-.751 1.193-1.812 2.607-2.652 2.475-2.652 1.415-2.12.618-2.873-.353-2.431-2.298-1.547-3.227-.53-4.773.265-2.298.044-2.21z"></path><path fill="#530a17" fill-rule="evenodd" d="m1888.024 1478.645-.374 7.375c1.639-4.425 1.897-4.7 5.25-6.875z"></path><path fill="none" stroke="#000" stroke-linecap="round" d="M1885.462 1477.395c3 1.651 6 1.73 9 1.75 3.44 3.158 7.678 5.93 11.188 7.312"></path><path fill="none" stroke="#000" stroke-linecap="round" stroke-linejoin="round" d="M1902.024 1484.55c1.79 1.618 2.921 1.947 2.87 2.024-2.976 4.556-6.176 8.103-10.088 8.383-4.986.357-7.26-4.644-7.219-10.406.014-2.027.152-3.793.44-5.705"></path><ellipse cx="2213.41" cy="925.494" stroke="#000" stroke-linecap="round" stroke-linejoin="round" rx="1.781" ry=".969" transform="rotate(15.186)"></ellipse><path fill="none" stroke="#000" stroke-linecap="round" d="M1917.563 1458.44c1.512-2.463 2.887-2.317 4.287-2.651m-29.168-9.944c1.445 1.274 2.119 2.645 1.68 4.154"></path><ellipse cx="2310.966" cy="1883.833" fill="#fff" rx="2.466" ry="3.523" transform="matrix(.98594 -.1671 -.20742 .97825 0 0)"></ellipse><ellipse cx="2385.814" cy="1834.52" fill="#fff" rx="2.399" ry="3.507" transform="matrix(.99135 -.13128 -.24165 .97036 0 0)"></ellipse><path fill="none" stroke="#000" stroke-linecap="round" stroke-linejoin="round" d="M1921.963 1545.333c-.883 3.757-2.695 7.755-5.39 11.494a35.815 35.815 0 0 1-1.967 2.491"></path><path fill="none" stroke="#000" stroke-linecap="round" d="M1894.78 1574.803c.638-1.817 1.655-2.957 3.219-3.117m23.718 12.18c.786-2.292 2.04-3.729 3.968-3.93m56.095-1.258c.638-1.817 1.655-2.957 3.219-3.117m-39.24-.622c.559-1.363 1.45-2.218 2.82-2.338m-58.174-.047c.366-1.526.949-2.483 1.845-2.617m24.967 12.053c.786-2.291 2.04-3.728 3.968-3.93m20.45-5.12c.36-1.292.935-2.1 1.82-2.214m34.575 6.203c.49-1.234 1.27-2.008 2.47-2.117"></path></g></svg>