<svg xmlns="http://www.w3.org/2000/svg" width="64" height="64" id="jigglypuff"><g transform="translate(-29.156 -1315.804)"><ellipse cx="61.678" cy="1368.445" fill="#e8edf1" rx="22.072" ry="6.401"></ellipse><ellipse cx="1099.123" cy="810.147" fill="#f7d4ee" stroke="#000" stroke-linecap="round" stroke-linejoin="round" rx="3.712" ry="8.404" transform="rotate(51.435) skewX(.059)"></ellipse><ellipse cx="1022.416" cy="907.036" fill="#f7d4ee" stroke="#000" stroke-linecap="round" stroke-linejoin="round" rx="3.509" ry="8.404" transform="matrix(-.6234 .7819 .78126 .62421 0 0)"></ellipse><path fill="#f7d4ee" fill-rule="evenodd" stroke="#000" d="M86.2 1347.486c.896-1.841 2.502-6.609-1.494-4.438-5.52 3-12.084 14.738-5.542 10.729 3.034-1.86 5.81-3.775 7.036-6.292z"></path><g fill="#f7d4ee" stroke="#000" stroke-width=".255"><path fill-rule="evenodd" d="M3.397 1046.936c.578.014 1.984.193 1.11-.626-1.21-1.132-4.553-2.22-3.326-.666 1.142 1.446 1.442 1.273 2.216 1.292z" transform="matrix(3.78277 0 0 4.04993 32.21 -2883.158)"></path><path stroke-linecap="round" stroke-linejoin="round" d="M12.432 1037.552a5.46 5.646 0 0 0-2.574 1.342 5.242 5.453 0 0 0-2.047-.439 5.242 5.453 0 0 0-2.814.854 5.46 5.646 0 0 0-3.154-.847 5.46 5.646 0 0 0 .81 4.49 5.242 5.453 0 0 0-.084.955 5.242 5.453 0 0 0 5.242 5.454 5.242 5.453 0 0 0 5.242-5.454 5.242 5.453 0 0 0-.317-1.845 5.46 5.646 0 0 0-.304-4.51z" transform="matrix(3.78277 0 0 4.04993 32.21 -2883.158)"></path></g><path d="M78.622 1320.143c2.448 4.312-.192 11.947-.192 11.947s-2.425-2.846-3.987-3.769c-1.369-.808-4.518-1.432-4.518-1.432s4.545-5.89 8.697-6.746zm-38.418 3.169c-1.61 4.578 2.309 11.455 2.309 11.455s1.85-3.164 3.203-4.327c1.185-1.018 4.132-2.174 4.132-2.174s-5.46-4.863-9.644-4.954z"></path><g stroke-width=".174" transform="matrix(3.13733 0 0 3.30646 93.45 -2131.484)"><ellipse cx="-6.917" cy="1050.599" fill="#dcd8da" stroke="#000" stroke-linecap="round" stroke-linejoin="round" stroke-width=".31" rx="2.083" ry="2.237"></ellipse><ellipse cx="-6.923" cy="1050.599" fill="#7aafab" stroke="#000" stroke-linecap="round" stroke-linejoin="round" stroke-width=".31" rx="1.541" ry="1.656"></ellipse><ellipse cx="-7.057" cy="1050.152" fill="#408480" rx="1.005" ry="1.076"></ellipse><ellipse cx="-7.278" cy="1049.426" fill="#fff" rx=".279" ry=".35"></ellipse></g><path fill="#d27d73" fill-rule="evenodd" stroke="#000" stroke-width="1.921" d="M135.828 1154.253h14.56s-.079 9.576-6.845 10.023c-6.95.459-7.715-10.023-7.715-10.023z" transform="matrix(.5204 0 0 .52053 -13.22 749.914)"></path><path fill="#e55847" d="M61.39 1352.001a6.437 6.109 0 0 0-3.124.777c.405 1.387 1.242 3.079 3.197 2.95 1.884-.125 2.597-1.73 2.907-3.03a6.437 6.109 0 0 0-2.98-.697z"></path><g stroke-width=".174" transform="matrix(3.13733 0 0 3.30646 72.66 -2131.3)"><ellipse cx="-6.917" cy="1050.599" fill="#dcd8da" stroke="#000" stroke-linecap="round" stroke-linejoin="round" stroke-width=".31" rx="2.083" ry="2.237"></ellipse><ellipse cx="-6.923" cy="1050.599" fill="#7aafab" stroke="#000" stroke-linecap="round" stroke-linejoin="round" stroke-width=".31" rx="1.541" ry="1.656"></ellipse><ellipse cx="-7.057" cy="1050.152" fill="#408480" rx="1.005" ry="1.076"></ellipse><ellipse cx="-7.278" cy="1049.426" fill="#fff" rx=".279" ry=".35"></ellipse></g><path fill="#f7d4ee" fill-rule="evenodd" stroke="#000" d="M67.47 1324.453a7.429 7.429 0 0 0-3.548-3.556 7.428 7.428 0 0 0-5.002-.45c-1.46.385-2.782 1.223-3.829 2.31-1.047 1.086-1.826 2.415-2.36 3.827-.875 2.316-1.091 4.914-.389 7.288.702 2.375 2.366 4.494 4.609 5.544.773.363 1.61.599 2.463.643.853.044 1.721-.109 2.487-.487a4.55 4.55 0 0 0 2.382-3 4.55 4.55 0 0 0-.807-3.746"></path><path fill="none" stroke="#000" stroke-linecap="round" stroke-linejoin="round" d="M60.1 1336.981s-2.25-1.268 1.745-3.5c3.994-2.231 5.006-2.637 5.4-4.31.394-1.675.113-.093.113-.093"></path><g transform="matrix(.4057 0 0 .41217 27.924 861.367)"><path fill="#0ba216" stroke="#000" stroke-linecap="round" stroke-linejoin="round" stroke-width="2.445" d="M28.018 1152.237c-3.418 0-6.188 1.567-6.188 3.5v18.852c0 1.933 2.77 3.5 6.188 3.5 3.417 0 6.187-1.567 6.187-3.5v-18.852c0-1.933-2.77-3.5-6.187-3.5z"></path><ellipse cx="28.031" cy="1174.205" fill="#256d2a" rx="5.813" ry="3.53"></ellipse><path fill="#256d2a" d="M31.51 1153.442v20.534c0 .91.732 1.642 1.641 1.642h.261c.445-.466.72-.993.72-1.56v-17.856c0-1.153-1.043-2.166-2.621-2.76z"></path><path fill="#2e362f" stroke="#000" stroke-linecap="round" stroke-linejoin="round" stroke-width="2.445" d="M28.018 1172.655c-2.153 0-3.899 1.01-3.899 2.255V1198.02c0 1.246 1.746 2.255 3.899 2.255 2.152 0 3.898-1.01 3.898-2.255V1174.91c0-1.245-1.746-2.255-3.898-2.255z"></path><path fill="#f2f2f2" stroke="#000" stroke-linecap="round" stroke-linejoin="round" stroke-width="2.445" d="M28.018 1178.312c-2.153 0-3.899 1.01-3.899 2.255V1181.667c0 1.246 1.173-.76 3.899-.75 2.907.01 3.898 1.907 3.898.75V1180.567c0-1.245-1.746-2.255-3.898-2.255zm0 11.75c-2.153 0-3.899 1.01-3.899 2.255V1193.417c0 1.246 1.173-.76 3.899-.75 2.907.01 3.898 1.907 3.898.75V1192.317c0-1.245-1.746-2.255-3.898-2.255z"></path></g><path fill="#f7d4ee" fill-rule="evenodd" stroke="#000" stroke-width="1.921" d="M98.498 1158.711s-2.228-2.177-3.009-3.63c-.78-1.452-1.981-3.84 1.096-4.356 2.785-.466 3.915 1.262 4.165 2.262s-2.063 3.063-2.188 3.813c-.124.75-.064 1.911-.064 1.911z" transform="matrix(.5204 0 0 .52053 -13.61 749.524)"></path></g></svg>