<svg xmlns="http://www.w3.org/2000/svg" width="64" height="64" id="poliwag"><g transform="translate(-183.91 -1159.666) scale(.93447)"><ellipse cx="224.073" cy="1291.246" fill="#e8edf1" rx="25.568" ry="7.955"></ellipse><g transform="matrix(1.98676 0 0 1.98178 206.778 -797.665)"><path fill="#87aade" fill-rule="evenodd" stroke="#000" stroke-width=".504" d="M3.673 1048.482s-.818 1.287-1.077 2.025c-.258.738-.642 1.857-.357 2.586.286.73 1.136 1.135 1.734 1.122 1.245-.51 1.515-1.758 1.616-2.4.217-1.456.11-2.653.11-2.653z"></path><path fill="#d6deea" stroke="#000" stroke-linecap="round" stroke-linejoin="round" stroke-width=".504" d="M21.37 1045.381c2.772-.494 6.482-.423 7.067 2.928.584 3.351-2.816 5.39-5.59 5.885-2.773.494-10.02-1.48-12.476-2.388-1.388-.513 8.225-5.93 10.998-6.425z"></path><path fill="#87aade" fill-rule="evenodd" stroke="#000" stroke-width=".504" d="M6.191 1051.194c1.272.58 1.724 1.065 4.218 1.628 2.493.562 8.443-2.517 12.17-3.166-3.665-.794-8.07 2.717-11.647 1.796-3.578-.921-3.754-1.44-3.86-1.55-.105-.11-2.153.712-.881 1.292z"></path><path fill="#87aade" fill-rule="evenodd" stroke="#000" stroke-width=".504" d="M11.044 1049.26s.097 1.523.324 2.272c.226.749.576 1.88 1.236 2.3.66.42 1.585.245 2.06-.119.705-1.146.187-2.314-.11-2.892a12.472 12.472 0 0 0-1.475-2.207z"></path><path fill="#87aade" stroke="#000" stroke-linecap="round" stroke-linejoin="round" stroke-width=".504" d="M15.855 1044.327c0 4.142-3.713 7.535-7.855 7.535s-7.89-3.393-7.89-7.535 3.937-9.04 7.524-9.11c4.346-.087 8.221 4.968 8.221 9.11z"></path><g transform="translate(-18.286 .674)"><path fill="#fff" stroke="#000" stroke-linecap="round" stroke-linejoin="round" stroke-width=".504" d="M24.737 1039.483c-.479.676-1.464 1.149-2.14.67-.675-.48-.574-1.537-.095-2.213.48-.675 1.506-1.206 2.181-.726.676.48.534 1.594.055 2.27z"></path><ellipse cx="629.731" cy="839.734" stroke="#000" stroke-linecap="round" stroke-linejoin="round" stroke-width=".504" rx=".797" ry="1.279" transform="matrix(.82162 .57004 -.58764 .80912 0 0)"></ellipse><circle cx="620.612" cy="832.241" r=".52" fill="#fff" transform="rotate(35.369)"></circle></g><ellipse cx="8.25" cy="1046.66" fill="#f5f5f5" stroke="#000" stroke-linecap="round" stroke-linejoin="round" stroke-width=".504" rx="5.202" ry="4.298"></ellipse><ellipse cx="7.919" cy="1042.209" fill="#fac" stroke="#000" stroke-linecap="round" stroke-linejoin="round" stroke-width=".504" rx="1.939" ry="1.258"></ellipse><path fill="none" stroke="#000" stroke-width="1.023" d="M4 1026.362c-.128.247-.395-.05-.41-.212-.039-.438.465-.67.835-.607.661.114.97.855.804 1.456-.243.882-1.25 1.276-2.078 1.002-1.103-.366-1.585-1.648-1.199-2.7.486-1.325 2.045-1.896 3.322-1.396 1.547.604 2.206 2.442 1.593 3.944-.722 1.769-2.84 2.517-4.566 1.79-1.991-.84-2.829-3.24-1.987-5.188.956-2.214 3.637-3.141 5.81-2.185 2.437 1.073 3.453 4.036 2.382 6.432-1.19 2.66-4.435 3.766-7.054 2.58-2.883-1.306-4.078-4.834-2.777-7.676 1.422-3.106 5.232-4.391 8.298-2.974 2.816 1.3 4.32 4.5 3.65 7.509" transform="matrix(-.53038 0 0 .45761 10.476 577.714)"></path><g transform="rotate(-90 17.552 1045.44)"><path fill="#fff" stroke="#000" stroke-linecap="round" stroke-linejoin="round" stroke-width=".504" d="M24.737 1039.483c-.479.676-1.464 1.149-2.14.67-.675-.48-.574-1.537-.095-2.213.48-.675 1.506-1.206 2.181-.726.676.48.534 1.594.055 2.27z"></path><ellipse cx="629.731" cy="839.734" stroke="#000" stroke-linecap="round" stroke-linejoin="round" stroke-width=".504" rx=".797" ry="1.279" transform="matrix(.82162 .57004 -.58764 .80912 0 0)"></ellipse><circle cx="620.612" cy="832.241" r=".52" fill="#fff" transform="rotate(35.369)"></circle></g></g><path fill="none" stroke="#000" stroke-linecap="round" stroke-linejoin="round" stroke-width=".504" d="M-146.952-977.223a.836.464 0 0 1-.42.402.836.464 0 0 1-.838-.002.836.464 0 0 1-.414-.404" transform="matrix(-1.98676 0 0 -1.98178 -71.132 -668.915)"></path></g></svg>