<svg width="80" height="80" viewBox="0 0 80 80" fill="none" xmlns="http://www.w3.org/2000/svg">
<path d="M76.8552 24.4302C74.841 19.6671 71.9579 15.3885 68.2859 11.7154C64.6114 8.04345 60.3319 5.15899 55.571 3.14487C50.6396 1.05871 45.4002 0.000244141 39.9999 0.000244141C34.6007 0.000244141 29.3616 1.05856 24.4299 3.14487C19.6668 5.15899 15.3883 8.0436 11.715 11.7154C8.0432 15.3885 5.15875 19.6671 3.14447 24.4302C1.05847 29.3619 0 34.6011 0 40.0002C0 45.4003 1.05831 50.6397 3.14462 55.5712C5.15875 60.3322 8.04336 64.6117 11.7152 68.2837C15.3883 71.9581 19.6668 74.8412 24.4301 76.8553C29.3618 78.9404 34.6009 79.9999 40.0001 79.9999C45.4004 79.9999 50.6398 78.9404 55.5712 76.8553C60.3321 74.841 64.6116 71.958 68.2861 68.2837C71.9581 64.6117 74.8411 60.332 76.8554 55.5712C78.9404 50.6397 80 45.4003 80 40.0002C79.9998 34.6011 78.9403 29.3619 76.8552 24.4302Z" fill="#ED5564"/>
<path d="M0.0159302 41.1231C0.152653 46.1254 1.20237 50.9815 3.14462 55.5712C5.15874 60.3321 8.04335 64.6116 11.7152 68.2836C15.3883 71.9581 19.6668 74.8411 24.4301 76.8553C29.3618 78.9403 34.6008 79.9999 40.0001 79.9999C45.4004 79.9999 50.6398 78.9403 55.5712 76.8553C60.3321 74.841 64.6116 71.9579 68.2861 68.2836C71.958 64.6116 74.8411 60.332 76.8554 55.5712C78.7989 50.9815 79.8486 46.1254 79.9853 41.1231H0.0159302Z" fill="#E6E9ED"/>
<path d="M79.8094 43.9405C79.9362 42.6367 79.9998 41.3232 79.9998 40.0001C79.9998 38.5131 79.9192 37.0386 79.7606 35.5798C77.7732 35.8862 74.9192 36.2854 71.3232 36.682C64.4967 37.4351 53.5252 38.3336 39.9999 38.3336C26.4758 38.3336 15.503 37.4351 8.67791 36.682C5.08062 36.2853 2.22772 35.8862 0.240476 35.5798C0.0806274 37.0386 0 38.5133 0 40.0001C0 41.3232 0.0634394 42.6369 0.190474 43.9405C6.67973 44.9171 20.9766 46.6649 39.9999 46.6649C59.0233 46.6649 73.32 44.9171 79.8094 43.9405Z" fill="#434A54"/>
<path d="M48.3348 41.6662C48.3348 46.2693 44.6018 49.9999 39.9999 49.9999C35.3979 49.9999 31.6662 46.2693 31.6662 41.6662C31.6662 37.064 35.3979 33.3336 39.9999 33.3336C44.6018 33.3338 48.3348 37.0642 48.3348 41.6662Z" fill="#E6E9ED"/>
<path d="M39.9999 26.6664C31.7284 26.6664 25 33.3961 25 41.6664C25 49.9366 31.7286 56.6649 39.9999 56.6649C48.2713 56.6649 54.9997 49.9364 54.9997 41.6664C54.9997 33.3961 48.2714 26.6664 39.9999 26.6664ZM39.9999 48.335C36.3245 48.335 33.3336 45.3418 33.3336 41.6664C33.3336 37.9908 36.3243 35.0001 39.9999 35.0001C43.6768 35.0001 46.6648 37.9908 46.6648 41.6664C46.6648 45.3416 43.6768 48.335 39.9999 48.335Z" fill="#434A54"/>
<path opacity="0.2" d="M76.8552 24.4302C74.8409 19.6671 71.9579 15.3885 68.2859 11.7154C64.6114 8.04345 60.3319 5.15899 55.571 3.14487C50.6396 1.05871 45.4002 0.000244141 39.9999 0.000244141C39.4421 0.000244141 38.8866 0.012432 38.3336 0.0344639C43.1445 0.229782 47.8123 1.27356 52.2362 3.14487C57.0017 5.15899 61.2791 8.0436 64.9508 11.7154C68.6228 15.3885 71.5087 19.6671 73.5225 24.4302C75.6099 29.3619 76.6646 34.6011 76.6646 40.0003C76.6646 45.4005 75.6099 50.6399 73.5225 55.5714C71.5085 60.3323 68.6228 64.6118 64.9508 68.2838C61.2791 71.9583 57.0017 74.8413 52.2362 76.8555C47.8123 78.7257 43.1444 79.7706 38.3336 79.9659C38.8866 79.9879 39.4419 80.0001 39.9999 80.0001C45.4002 80.0001 50.6396 78.9405 55.571 76.8555C60.3319 74.8412 64.6114 71.9581 68.2859 68.2838C71.9579 64.6118 74.8409 60.3322 76.8552 55.5714C78.9403 50.6399 79.9998 45.4005 79.9998 40.0003C79.9998 34.6011 78.9403 29.3619 76.8552 24.4302Z" fill="white"/>
<path opacity="0.1" d="M3.14462 55.5712C5.15874 60.3322 8.04336 64.6117 11.7152 68.2837C15.3883 71.9581 19.6668 74.8412 24.4301 76.8553C29.3618 78.9404 34.6009 79.9999 40.0001 79.9999C40.5579 79.9999 41.1134 79.9877 41.6664 79.9657C36.8555 79.7704 32.1864 78.7254 27.7625 76.8553C22.9994 74.841 18.7221 71.958 15.049 68.2837C11.376 64.6117 8.49259 60.332 6.47722 55.5712C4.39091 50.6399 3.33385 45.4005 3.33385 40.0002C3.33385 34.6009 4.39091 29.3617 6.47706 24.43C8.49244 19.6669 11.3758 15.3882 15.0489 11.7165C18.722 8.04345 22.9993 5.15883 27.7624 3.14471C32.1863 1.27341 36.8553 0.229626 41.6662 0.0343076C41.1132 0.012432 40.5578 0.000244141 39.9999 0.000244141C34.6007 0.000244141 29.3616 1.05856 24.4299 3.14487C19.6668 5.15899 15.3883 8.0436 11.715 11.7167C8.0432 15.3885 5.15874 19.6671 3.14447 24.4302C1.05847 29.3619 0 34.6011 0 40.0002C0 45.4003 1.05847 50.6399 3.14462 55.5712Z" fill="black"/>
</svg>
