<svg width="196" height="43" viewBox="0 0 196 43" fill="none" xmlns="http://www.w3.org/2000/svg">
<path d="M57.3896 12.0156H60.6143L65.3623 25.5869L70.1104 12.0156H73.335L66.6572 30.5H64.0674L57.3896 12.0156ZM55.6504 12.0156H58.8623L59.4463 25.2441V30.5H55.6504V12.0156ZM71.8623 12.0156H75.0869V30.5H71.2783V25.2441L71.8623 12.0156ZM84.5195 30.7539C83.4531 30.7539 82.4967 30.5846 81.6504 30.2461C80.804 29.8991 80.0846 29.4209 79.4922 28.8115C78.9082 28.2021 78.4596 27.4954 78.1465 26.6914C77.8333 25.8789 77.6768 25.0156 77.6768 24.1016V23.5938C77.6768 22.5527 77.8249 21.6006 78.1211 20.7373C78.4173 19.874 78.8405 19.125 79.3906 18.4902C79.9492 17.8555 80.6263 17.3688 81.4219 17.0303C82.2174 16.6833 83.1146 16.5098 84.1133 16.5098C85.0866 16.5098 85.9499 16.6706 86.7031 16.9922C87.4564 17.3138 88.0869 17.7708 88.5947 18.3633C89.111 18.9557 89.5003 19.6667 89.7627 20.4961C90.0251 21.3171 90.1562 22.2311 90.1562 23.2383V24.7617H79.2383V22.3242H86.5635V22.0449C86.5635 21.5371 86.4704 21.0843 86.2842 20.6865C86.1064 20.2803 85.8356 19.9587 85.4717 19.7217C85.1077 19.4847 84.6423 19.3662 84.0752 19.3662C83.5928 19.3662 83.1781 19.472 82.8311 19.6836C82.484 19.8952 82.2005 20.1914 81.9805 20.5723C81.7689 20.9531 81.6081 21.4017 81.498 21.918C81.3965 22.4258 81.3457 22.9844 81.3457 23.5938V24.1016C81.3457 24.6517 81.4219 25.1595 81.5742 25.625C81.735 26.0905 81.9593 26.4925 82.2471 26.8311C82.5433 27.1696 82.8988 27.432 83.3135 27.6182C83.7367 27.8044 84.2148 27.8975 84.748 27.8975C85.4082 27.8975 86.0218 27.7705 86.5889 27.5166C87.1644 27.2542 87.6595 26.8607 88.0742 26.3359L89.8516 28.2656C89.5638 28.6803 89.1702 29.0781 88.6709 29.459C88.18 29.8398 87.5876 30.153 86.8936 30.3984C86.1995 30.6354 85.4082 30.7539 84.5195 30.7539ZM95.8945 19.6074V30.5H92.2256V16.7637H95.666L95.8945 19.6074ZM95.3867 23.1494H94.3711C94.3711 22.193 94.4854 21.3128 94.7139 20.5088C94.9508 19.6963 95.2936 18.9938 95.7422 18.4014C96.1992 17.8005 96.762 17.335 97.4307 17.0049C98.0993 16.6748 98.8737 16.5098 99.7539 16.5098C100.363 16.5098 100.922 16.6029 101.43 16.7891C101.938 16.9668 102.373 17.2503 102.737 17.6396C103.11 18.0205 103.397 18.5199 103.601 19.1377C103.804 19.7471 103.905 20.4792 103.905 21.334V30.5H100.249V21.7402C100.249 21.1139 100.164 20.6315 99.9951 20.293C99.8258 19.9544 99.5846 19.7174 99.2715 19.582C98.9668 19.4466 98.5986 19.3789 98.167 19.3789C97.693 19.3789 97.2783 19.4762 96.9229 19.6709C96.5758 19.8656 96.2881 20.1364 96.0596 20.4834C95.8311 20.8219 95.6618 21.2197 95.5518 21.6768C95.4417 22.1338 95.3867 22.6247 95.3867 23.1494ZM103.562 22.7305L102.255 22.8955C102.255 21.9984 102.365 21.1647 102.585 20.3945C102.813 19.6243 103.148 18.9473 103.588 18.3633C104.036 17.7793 104.591 17.3265 105.251 17.0049C105.911 16.6748 106.673 16.5098 107.536 16.5098C108.196 16.5098 108.797 16.6071 109.339 16.8018C109.881 16.988 110.342 17.2884 110.723 17.7031C111.112 18.1094 111.408 18.6426 111.611 19.3027C111.823 19.9629 111.929 20.7712 111.929 21.7275V30.5H108.26V21.7275C108.26 21.0928 108.175 20.6104 108.006 20.2803C107.845 19.9417 107.608 19.709 107.295 19.582C106.99 19.4466 106.626 19.3789 106.203 19.3789C105.763 19.3789 105.378 19.4678 105.048 19.6455C104.718 19.8148 104.443 20.0518 104.223 20.3564C104.003 20.6611 103.838 21.0166 103.728 21.4229C103.618 21.8206 103.562 22.2565 103.562 22.7305ZM114.176 23.7715V23.5049C114.176 22.4977 114.32 21.571 114.607 20.7246C114.895 19.8698 115.314 19.1292 115.864 18.5029C116.414 17.8766 117.091 17.39 117.896 17.043C118.7 16.6875 119.622 16.5098 120.663 16.5098C121.704 16.5098 122.631 16.6875 123.443 17.043C124.256 17.39 124.937 17.8766 125.487 18.5029C126.046 19.1292 126.469 19.8698 126.757 20.7246C127.045 21.571 127.188 22.4977 127.188 23.5049V23.7715C127.188 24.7702 127.045 25.6969 126.757 26.5518C126.469 27.3981 126.046 28.1387 125.487 28.7734C124.937 29.3997 124.26 29.8864 123.456 30.2334C122.652 30.5804 121.729 30.7539 120.688 30.7539C119.647 30.7539 118.721 30.5804 117.908 30.2334C117.104 29.8864 116.423 29.3997 115.864 28.7734C115.314 28.1387 114.895 27.3981 114.607 26.5518C114.32 25.6969 114.176 24.7702 114.176 23.7715ZM117.832 23.5049V23.7715C117.832 24.347 117.883 24.8844 117.984 25.3838C118.086 25.8831 118.247 26.3232 118.467 26.7041C118.695 27.0765 118.992 27.3685 119.355 27.5801C119.719 27.7917 120.164 27.8975 120.688 27.8975C121.196 27.8975 121.632 27.7917 121.996 27.5801C122.36 27.3685 122.652 27.0765 122.872 26.7041C123.092 26.3232 123.253 25.8831 123.354 25.3838C123.465 24.8844 123.52 24.347 123.52 23.7715V23.5049C123.52 22.9463 123.465 22.4215 123.354 21.9307C123.253 21.4313 123.088 20.9912 122.859 20.6104C122.639 20.221 122.347 19.9163 121.983 19.6963C121.619 19.4762 121.179 19.3662 120.663 19.3662C120.147 19.3662 119.707 19.4762 119.343 19.6963C118.987 19.9163 118.695 20.221 118.467 20.6104C118.247 20.9912 118.086 21.4313 117.984 21.9307C117.883 22.4215 117.832 22.9463 117.832 23.5049ZM133.092 19.7598V30.5H129.436V16.7637H132.876L133.092 19.7598ZM137.23 16.6748L137.167 20.0645C136.989 20.0391 136.773 20.0179 136.52 20.001C136.274 19.9756 136.05 19.9629 135.847 19.9629C135.33 19.9629 134.882 20.0306 134.501 20.166C134.129 20.293 133.815 20.4834 133.562 20.7373C133.316 20.9912 133.13 21.3001 133.003 21.6641C132.884 22.028 132.817 22.4427 132.8 22.9082L132.063 22.6797C132.063 21.791 132.152 20.9743 132.33 20.2295C132.508 19.4762 132.766 18.8203 133.104 18.2617C133.451 17.7031 133.875 17.2715 134.374 16.9668C134.873 16.6621 135.445 16.5098 136.088 16.5098C136.291 16.5098 136.498 16.5267 136.71 16.5605C136.922 16.5859 137.095 16.624 137.23 16.6748ZM143.261 28.9512L146.904 16.7637H150.827L145.305 32.5693C145.186 32.9163 145.025 33.2887 144.822 33.6865C144.628 34.0843 144.361 34.4609 144.022 34.8164C143.692 35.1803 143.273 35.4766 142.766 35.7051C142.266 35.9336 141.653 36.0479 140.925 36.0479C140.578 36.0479 140.294 36.0267 140.074 35.9844C139.854 35.9421 139.592 35.8828 139.287 35.8066V33.1279C139.38 33.1279 139.478 33.1279 139.579 33.1279C139.681 33.1364 139.778 33.1406 139.871 33.1406C140.354 33.1406 140.747 33.0856 141.052 32.9756C141.356 32.8656 141.602 32.6963 141.788 32.4678C141.974 32.2477 142.122 31.96 142.232 31.6045L143.261 28.9512ZM141.737 16.7637L144.721 26.7168L145.241 30.5889L142.753 30.8555L137.814 16.7637H141.737Z" fill="#E1E1E6"/>
<path d="M158.19 30.5H154.166L154.191 27.5293H158.19C159.189 27.5293 160.031 27.305 160.717 26.8564C161.402 26.3994 161.919 25.735 162.266 24.8633C162.621 23.9915 162.799 22.9378 162.799 21.7021V20.8008C162.799 19.8529 162.697 19.0192 162.494 18.2998C162.299 17.5804 162.007 16.9753 161.618 16.4844C161.229 15.9935 160.751 15.6253 160.184 15.3799C159.617 15.126 158.965 14.999 158.229 14.999H154.09V12.0156H158.229C159.464 12.0156 160.594 12.2272 161.618 12.6504C162.651 13.0651 163.544 13.6618 164.297 14.4404C165.05 15.2191 165.63 16.1501 166.036 17.2334C166.451 18.3083 166.658 19.5059 166.658 20.8262V21.7021C166.658 23.014 166.451 24.2116 166.036 25.2949C165.63 26.3783 165.05 27.3092 164.297 28.0879C163.552 28.8581 162.659 29.4548 161.618 29.8779C160.586 30.2926 159.443 30.5 158.19 30.5ZM156.324 12.0156V30.5H152.516V12.0156H156.324ZM175.52 30.7539C174.453 30.7539 173.497 30.5846 172.65 30.2461C171.804 29.8991 171.085 29.4209 170.492 28.8115C169.908 28.2021 169.46 27.4954 169.146 26.6914C168.833 25.8789 168.677 25.0156 168.677 24.1016V23.5938C168.677 22.5527 168.825 21.6006 169.121 20.7373C169.417 19.874 169.84 19.125 170.391 18.4902C170.949 17.8555 171.626 17.3688 172.422 17.0303C173.217 16.6833 174.115 16.5098 175.113 16.5098C176.087 16.5098 176.95 16.6706 177.703 16.9922C178.456 17.3138 179.087 17.7708 179.595 18.3633C180.111 18.9557 180.5 19.6667 180.763 20.4961C181.025 21.3171 181.156 22.2311 181.156 23.2383V24.7617H170.238V22.3242H177.563V22.0449C177.563 21.5371 177.47 21.0843 177.284 20.6865C177.106 20.2803 176.836 19.9587 176.472 19.7217C176.108 19.4847 175.642 19.3662 175.075 19.3662C174.593 19.3662 174.178 19.472 173.831 19.6836C173.484 19.8952 173.201 20.1914 172.98 20.5723C172.769 20.9531 172.608 21.4017 172.498 21.918C172.396 22.4258 172.346 22.9844 172.346 23.5938V24.1016C172.346 24.6517 172.422 25.1595 172.574 25.625C172.735 26.0905 172.959 26.4925 173.247 26.8311C173.543 27.1696 173.899 27.432 174.313 27.6182C174.737 27.8044 175.215 27.8975 175.748 27.8975C176.408 27.8975 177.022 27.7705 177.589 27.5166C178.164 27.2542 178.66 26.8607 179.074 26.3359L180.852 28.2656C180.564 28.6803 180.17 29.0781 179.671 29.459C179.18 29.8398 178.588 30.153 177.894 30.3984C177.2 30.6354 176.408 30.7539 175.52 30.7539ZM186.184 16.7637L188.456 20.9404L190.792 16.7637H194.689L190.805 23.4795L194.867 30.5H190.957L188.481 26.082L186.006 30.5H182.096L186.158 23.4795L182.273 16.7637H186.184Z" fill="#F26876"/>
<path d="M38.4276 12.215C37.4205 9.83343 35.9789 7.69415 34.143 5.8576C32.3057 4.02161 30.166 2.57938 27.7855 1.57231C25.3198 0.529235 22.7001 0 20 0C17.3004 0 14.6808 0.529157 12.215 1.57231C9.83341 2.57938 7.69413 4.02169 5.85752 5.8576C4.0216 7.69415 2.57937 9.83343 1.57223 12.215C0.529234 14.6808 0 17.3005 0 20C0 22.7001 0.529156 25.3198 1.57231 27.7856C2.57937 30.166 4.02168 32.3058 5.85759 34.1418C7.69413 35.979 9.83341 37.4205 12.215 38.4276C14.6809 39.4701 17.3004 39.9999 20 39.9999C22.7002 39.9999 25.3199 39.4701 27.7856 38.4276C30.166 37.4205 32.3058 35.9789 34.143 34.1418C35.979 32.3058 37.4206 30.1659 38.4277 27.7856C39.4702 25.3198 40 22.7001 40 20C39.9999 17.3005 39.4701 14.6808 38.4276 12.215Z" fill="#ED5564"/>
<path d="M0.00795746 20.5614C0.0763188 23.0626 0.601178 25.4906 1.5723 27.7855C2.57936 30.1659 4.02167 32.3057 5.85758 34.1417C7.69412 35.9789 9.8334 37.4204 12.215 38.4275C14.6809 39.47 17.3004 39.9998 20 39.9998C22.7002 39.9998 25.3199 39.47 27.7856 38.4275C30.166 37.4204 32.3058 35.9788 34.143 34.1417C35.979 32.3057 37.4205 30.1658 38.4277 27.7855C39.3994 25.4906 39.9243 23.0626 39.9926 20.5614H0.00795746Z" fill="#E6E9ED"/>
<path d="M39.9047 21.9702C39.9681 21.3183 39.9999 20.6616 39.9999 20C39.9999 19.2565 39.9596 18.5193 39.8803 17.7899C38.8866 17.9431 37.4596 18.1427 35.6616 18.341C32.2484 18.7175 26.7626 19.1668 20 19.1668C13.2379 19.1668 7.75148 18.7175 4.33895 18.341C2.54031 18.1426 1.11386 17.9431 0.120238 17.7899C0.0403137 18.5193 0 19.2566 0 20C0 20.6616 0.0317197 21.3184 0.0952372 21.9702C3.33986 22.4585 10.4883 23.3325 20 23.3325C29.5116 23.3325 36.66 22.4585 39.9047 21.9702Z" fill="#434A54"/>
<path d="M24.1674 20.8331C24.1674 23.1346 22.3009 24.9999 19.9999 24.9999C17.6989 24.9999 15.8331 23.1346 15.8331 20.8331C15.8331 18.532 17.6989 16.6667 19.9999 16.6667C22.3009 16.6668 24.1674 18.532 24.1674 20.8331Z" fill="#E6E9ED"/>
<path d="M20 13.3331C15.8642 13.3331 12.5 16.698 12.5 20.8331C12.5 24.9683 15.8643 28.3324 20 28.3324C24.1357 28.3324 27.4999 24.9682 27.4999 20.8331C27.4999 16.698 24.1357 13.3331 20 13.3331ZM20 24.1675C18.1623 24.1675 16.6668 22.6708 16.6668 20.8331C16.6668 18.9953 18.1622 17.5 20 17.5C21.8384 17.5 23.3324 18.9953 23.3324 20.8331C23.3324 22.6708 21.8384 24.1675 20 24.1675Z" fill="#434A54"/>
<path opacity="0.2" d="M38.4276 12.215C37.4205 9.83343 35.979 7.69415 34.143 5.8576C32.3057 4.02161 30.166 2.57938 27.7855 1.57231C25.3198 0.529235 22.7002 0 20 0C19.7211 0 19.4433 0.00609394 19.1668 0.0171099C21.5723 0.114769 23.9062 0.636661 26.1181 1.57231C28.5009 2.57938 30.6396 4.02169 32.4754 5.8576C34.3114 7.69415 35.7544 9.83343 36.7613 12.215C37.805 14.6809 38.3323 17.3005 38.3323 20.0001C38.3323 22.7002 37.805 25.3199 36.7613 27.7856C35.7543 30.1661 34.3114 32.3059 32.4754 34.1418C30.6396 35.9791 28.5009 37.4206 26.1181 38.4277C23.9062 39.3628 21.5722 39.8852 19.1668 39.9829C19.4433 39.9939 19.721 40 20 40C22.7002 40 25.3198 39.4702 27.7855 38.4277C30.166 37.4205 32.3057 35.979 34.143 34.1418C35.979 32.3059 37.4205 30.166 38.4276 27.7856C39.4702 25.3199 40 22.7002 40 20.0001C40 17.3005 39.4702 14.6809 38.4276 12.215Z" fill="white"/>
<path opacity="0.1" d="M1.57231 27.7856C2.57937 30.166 4.02168 32.3058 5.85759 34.1418C7.69413 35.979 9.83341 37.4205 12.215 38.4276C14.6809 39.4701 17.3004 39.9999 20 39.9999C20.279 39.9999 20.5567 39.9938 20.8332 39.9828C18.4277 39.8852 16.0932 39.3626 13.8813 38.4276C11.4997 37.4205 9.36105 35.9789 7.52452 34.1418C5.68798 32.3058 4.2463 30.1659 3.23861 27.7856C2.19545 25.3199 1.66692 22.7002 1.66692 20C1.66692 17.3004 2.19545 14.6808 3.23853 12.2149C4.24622 9.83335 5.6879 7.69399 7.52444 5.85815C9.36098 4.02161 11.4996 2.5793 13.8812 1.57224C16.0931 0.636582 18.4276 0.114691 20.8331 0.0170318C20.5566 0.00609394 20.2789 0 20 0C17.3003 0 14.6808 0.529157 12.215 1.57231C9.83341 2.57938 7.69413 4.02169 5.85751 5.85823C4.0216 7.69415 2.57937 9.83343 1.57223 12.215C0.529234 14.6808 0 17.3005 0 20C0 22.7001 0.529234 25.3199 1.57231 27.7856Z" fill="black"/>
</svg>
